<?xml version="1.0" encoding="UTF-8"?>
<svg id="_圖層_2" data-name="圖層 2" xmlns="http://www.w3.org/2000/svg" viewBox="0 0 147.9 6.97">
  <defs>
    <style>
      .cls-1 {
        fill: #fff;
      }
    </style>
  </defs>
  <g id="_圖層_1-2" data-name="圖層 1">
    <g>
      <path class="cls-1" d="M.05,6.61c.3-.02,.51-.07,.64-.13,.21-.11,.35-.32,.43-.62L2.61,.48c-.78,0-1.3,.06-1.55,.18-.25,.12-.54,.48-.88,1.07l-.18-.03L.42,.13H5.85l-.45,1.66-.18-.02,.02-.35c0-.31-.07-.54-.21-.7-.14-.15-.42-.23-.84-.23h-.57l-1.43,5.07c-.03,.11-.06,.21-.07,.29-.03,.13-.05,.23-.05,.31,0,.2,.06,.32,.18,.37,.12,.05,.36,.08,.72,.09v.16H.05v-.16Z"/>
      <path class="cls-1" d="M5.26,6.61c.24-.02,.4-.06,.49-.13,.14-.1,.25-.31,.34-.62L7.34,1.35c.05-.18,.08-.31,.09-.39,.02-.07,.02-.15,.02-.22,0-.17-.06-.28-.17-.35-.11-.06-.32-.1-.62-.11V.13h2.78v.16c-.27,.02-.47,.07-.59,.13-.21,.11-.35,.32-.43,.62l-.55,1.98h3.15l.5-1.8c.03-.13,.05-.23,.06-.31,0-.08,.01-.14,.01-.2,0-.16-.08-.28-.24-.35-.11-.04-.27-.07-.47-.07V.13h2.52v.16c-.27,.03-.45,.09-.55,.17-.1,.08-.19,.27-.28,.58l-1.24,4.5-.09,.39s-.01,.07-.02,.1c0,.03,0,.07,0,.1,0,.19,.06,.32,.17,.37,.11,.05,.32,.09,.62,.1v.16h-2.78v-.16c.27-.02,.46-.06,.59-.13,.21-.11,.35-.32,.44-.62l.67-2.41h-3.15l-.58,2.1-.09,.39s-.01,.07-.02,.1c0,.03,0,.07,0,.1,0,.19,.05,.31,.16,.36,.1,.05,.29,.09,.56,.11v.16h-2.52v-.16Z"/>
      <path class="cls-1" d="M12.94,6.61c.24-.02,.4-.06,.49-.13,.14-.1,.25-.31,.34-.62l1.25-4.5c.04-.15,.07-.27,.09-.37,.02-.1,.03-.18,.03-.25,0-.16-.06-.27-.18-.33s-.33-.1-.61-.1V.13h5.07l-.32,1.55h-.21c0-.11,.02-.21,.02-.3,0-.09,0-.13,0-.1,0-.33-.11-.55-.36-.66-.24-.1-.74-.16-1.5-.16-.35,0-.57,.02-.66,.05-.09,.03-.15,.1-.18,.21l-.66,2.37c.89-.03,1.43-.09,1.61-.17,.18-.08,.37-.36,.58-.82l.19,.04-.7,2.36-.2-.04c.03-.2,.05-.32,.06-.36,0-.04,0-.09,0-.14,0-.22-.08-.36-.23-.42-.15-.06-.43-.1-.84-.1h-.58l-.63,2.27c-.02,.07-.04,.13-.05,.19-.01,.06-.02,.12-.02,.18,0,.11,.03,.19,.08,.24,.1,.09,.3,.14,.61,.14,.91,0,1.56-.1,1.96-.29,.39-.2,.78-.57,1.18-1.13l.16,.08-.64,1.65h-5.17v-.16Z"/>
      <path class="cls-1" d="M22.23,6.61c.24-.02,.4-.06,.49-.13,.14-.1,.25-.31,.34-.62l1.25-4.5,.09-.39s.02-.09,.02-.13c0-.04,0-.07,0-.1,0-.16-.05-.27-.16-.33-.11-.06-.3-.1-.56-.11V.13h2.52c.52,0,.94,.06,1.26,.19,.6,.24,.9,.69,.9,1.36,0,.4-.12,.76-.36,1.07-.46,.61-1.29,.91-2.48,.91-.15,0-.29,0-.43-.02-.14-.01-.28-.03-.41-.06l-.55,1.96c-.03,.12-.06,.22-.07,.29-.03,.13-.04,.24-.04,.31,0,.17,.05,.28,.15,.34s.28,.1,.54,.11v.16h-2.5v-.16Zm2.79-3.34c.09,.01,.21,.02,.36,.02,.5,0,.9-.07,1.18-.21,.53-.26,.79-.75,.79-1.47,0-.43-.12-.73-.36-.9-.24-.18-.56-.26-.95-.26-.16,0-.28,.01-.36,.04-.08,.03-.14,.11-.18,.23l-.72,2.52c.06,.01,.14,.02,.23,.03Z"/>
      <path class="cls-1" d="M28.68,6.61c.24-.02,.4-.06,.49-.13,.14-.1,.25-.31,.34-.62l1.25-4.5c.04-.15,.07-.27,.09-.37,.02-.1,.03-.18,.03-.25,0-.16-.06-.27-.18-.33s-.33-.1-.61-.1V.13h5.07l-.32,1.55h-.21c0-.11,.02-.21,.02-.3,0-.09,0-.13,0-.1,0-.33-.11-.55-.36-.66-.24-.1-.74-.16-1.5-.16-.35,0-.57,.02-.66,.05-.09,.03-.15,.1-.18,.21l-.66,2.37c.89-.03,1.43-.09,1.61-.17,.18-.08,.37-.36,.58-.82l.19,.04-.7,2.36-.2-.04c.03-.2,.05-.32,.06-.36,0-.04,0-.09,0-.14,0-.22-.08-.36-.23-.42-.15-.06-.44-.1-.84-.1h-.58l-.63,2.27c-.02,.07-.04,.13-.05,.19-.01,.06-.02,.12-.02,.18,0,.11,.03,.19,.08,.24,.1,.09,.3,.14,.61,.14,.91,0,1.56-.1,1.96-.29,.39-.2,.78-.57,1.18-1.13l.16,.08-.64,1.65h-5.17v-.16Z"/>
      <path class="cls-1" d="M35.03,6.61c.24-.02,.4-.06,.49-.13,.14-.1,.25-.31,.34-.62l1.25-4.51c.03-.09,.05-.19,.08-.31,.02-.12,.04-.23,.04-.32,0-.16-.06-.26-.17-.32-.11-.06-.29-.09-.55-.11V.13h2.52c.48,0,.89,.06,1.21,.18,.61,.23,.92,.65,.92,1.27s-.27,1.05-.8,1.37c-.29,.18-.69,.32-1.21,.43l.94,2.5c.09,.25,.2,.43,.32,.54,.12,.12,.3,.18,.53,.19v.16h-1.51l-1.25-3.3-.66-.05-.57,2.12c-.02,.09-.05,.17-.07,.25-.03,.16-.05,.29-.05,.38,0,.16,.05,.26,.16,.32,.11,.06,.29,.09,.53,.1v.16h-2.5v-.16Zm3.05-3.52c.05,0,.11,0,.17,0,.51,0,.95-.12,1.3-.35,.36-.24,.53-.64,.53-1.2,0-.43-.12-.72-.36-.87-.24-.15-.56-.23-.94-.23-.14,0-.24,.02-.32,.05-.08,.03-.13,.11-.16,.22l-.65,2.33c.23,.02,.37,.04,.43,.04Z"/>
      <path class="cls-1" d="M41.65,6.61c.24-.02,.4-.06,.49-.13,.14-.1,.25-.31,.34-.62l1.25-4.5c.03-.11,.05-.21,.07-.28,.03-.14,.05-.25,.05-.32,0-.18-.06-.29-.18-.35-.12-.06-.32-.09-.61-.1V.13h5.07l-.32,1.55h-.21c0-.12,.01-.21,.01-.26,0-.08,0-.14,0-.18,0-.31-.12-.51-.36-.62-.24-.1-.74-.15-1.49-.15-.32,0-.54,.02-.64,.04-.11,.03-.18,.1-.21,.22l-.67,2.36c.87-.03,1.4-.08,1.58-.16,.18-.08,.39-.34,.62-.79l.18,.05-.77,2.38-.18-.05c.04-.2,.06-.33,.07-.39,0-.07,.01-.13,.01-.19,0-.23-.1-.38-.29-.45-.12-.04-.37-.06-.75-.06h-.58l-.62,2.26c-.05,.18-.08,.28-.09,.32,0,.04-.01,.08-.01,.14,0,.18,.07,.3,.22,.36,.1,.04,.28,.07,.56,.08v.16h-2.56v-.16Z"/>
      <path class="cls-1" d="M48.1,6.61c.24-.02,.4-.06,.49-.13,.14-.1,.25-.31,.34-.62l1.25-4.5c.04-.15,.07-.27,.09-.37,.02-.1,.03-.18,.03-.25,0-.16-.06-.27-.18-.33s-.33-.1-.61-.1V.13h5.07l-.32,1.55h-.21c0-.11,.02-.21,.02-.3,0-.09,0-.13,0-.1,0-.33-.11-.55-.36-.66-.24-.1-.74-.16-1.5-.16-.35,0-.57,.02-.66,.05-.09,.03-.15,.1-.18,.21l-.66,2.37c.89-.03,1.43-.09,1.61-.17,.18-.08,.37-.36,.58-.82l.19,.04-.7,2.36-.2-.04c.03-.2,.05-.32,.06-.36,0-.04,0-.09,0-.14,0-.22-.08-.36-.23-.42-.15-.06-.43-.1-.84-.1h-.58l-.63,2.27c-.02,.07-.04,.13-.05,.19-.01,.06-.02,.12-.02,.18,0,.11,.03,.19,.08,.24,.1,.09,.3,.14,.61,.14,.91,0,1.56-.1,1.96-.29,.39-.2,.78-.57,1.18-1.13l.16,.08-.64,1.65h-5.17v-.16Z"/>
      <path class="cls-1" d="M60.24,.12c.34,.08,.55,.12,.63,.12,.12,0,.21-.02,.26-.06,.05-.04,.09-.1,.12-.17h.21l-.37,2.03-.18-.02c-.04-.4-.13-.72-.27-.97-.26-.45-.69-.68-1.3-.68-.93,0-1.69,.46-2.29,1.39-.52,.81-.79,1.68-.79,2.62,0,.7,.16,1.23,.48,1.59,.32,.36,.73,.54,1.23,.54s.99-.13,1.42-.38c.25-.15,.59-.43,1-.82l.16,.14c-.37,.47-.79,.84-1.26,1.11-.47,.27-.98,.41-1.55,.41-.85,0-1.5-.27-1.95-.81-.45-.54-.68-1.16-.68-1.88,0-1.03,.38-1.98,1.14-2.84,.83-.95,1.84-1.43,3.03-1.43,.29,0,.61,.04,.96,.12Z"/>
      <path class="cls-1" d="M62.25,6.61c.3-.02,.51-.07,.64-.13,.21-.11,.35-.32,.43-.62l1.49-5.37c-.78,0-1.3,.06-1.55,.18-.25,.12-.54,.48-.88,1.07l-.18-.03,.42-1.57h5.43l-.45,1.66-.18-.02,.02-.35c0-.31-.07-.54-.21-.7-.14-.15-.42-.23-.84-.23h-.57l-1.43,5.07c-.03,.11-.06,.21-.07,.29-.03,.13-.04,.23-.04,.31,0,.2,.06,.32,.18,.37,.12,.05,.36,.08,.72,.09v.16h-2.94v-.16Z"/>
      <path class="cls-1" d="M70.08,6.61c.24-.02,.4-.06,.49-.13,.14-.1,.25-.31,.34-.62l1.25-4.5c.05-.18,.08-.31,.09-.39,.02-.07,.02-.15,.02-.22,0-.17-.06-.28-.17-.35-.11-.06-.32-.1-.62-.11V.13h2.78v.16c-.27,.02-.47,.07-.59,.13-.21,.11-.35,.31-.43,.62l-1.25,4.5-.09,.39s0,.04,0,.06c0,.02,0,.04,0,.06,0,.08,.03,.15,.08,.2,.05,.05,.14,.08,.25,.11,.09,.02,.22,.03,.38,.03,.1,0,.26,0,.48,0,.69,0,1.22-.09,1.58-.28,.36-.18,.69-.6,.99-1.24l.2,.06-.59,1.82h-5.19v-.16Z"/>
      <path class="cls-1" d="M76,6.61c.24-.02,.4-.06,.49-.13,.14-.1,.25-.31,.34-.62l1.25-4.5c.05-.18,.08-.31,.09-.39,.02-.07,.02-.15,.02-.22,0-.16-.05-.27-.16-.34-.11-.06-.29-.1-.56-.12V.13h2.52v.16c-.27,.04-.45,.09-.55,.17-.1,.08-.19,.27-.28,.58l-1.25,4.5c-.04,.16-.07,.29-.09,.39-.02,.1-.03,.18-.03,.23,0,.17,.06,.28,.18,.33,.12,.06,.29,.09,.52,.1v.16h-2.5v-.16Z"/>
      <path class="cls-1" d="M79.74,6.61c.24-.02,.4-.06,.49-.13,.14-.1,.25-.31,.34-.62l1.25-4.5c.03-.11,.05-.21,.07-.28,.03-.14,.05-.25,.05-.32,0-.18-.06-.29-.18-.35-.12-.06-.32-.09-.61-.1V.13h5.07l-.32,1.55h-.21c0-.12,.01-.21,.01-.26,0-.08,0-.14,0-.18,0-.31-.12-.51-.36-.62-.24-.1-.74-.15-1.49-.15-.32,0-.54,.02-.64,.04-.11,.03-.18,.1-.21,.22l-.67,2.36c.87-.03,1.4-.08,1.58-.16,.18-.08,.39-.34,.62-.79l.18,.05-.77,2.38-.18-.05c.04-.2,.06-.33,.07-.39,0-.07,.01-.13,.01-.19,0-.23-.1-.38-.29-.45-.12-.04-.37-.06-.75-.06h-.58l-.62,2.26c-.05,.18-.08,.28-.09,.32,0,.04-.01,.08-.01,.14,0,.18,.07,.3,.22,.36,.1,.04,.28,.07,.56,.08v.16h-2.56v-.16Z"/>
      <path class="cls-1" d="M86.19,6.61c.24-.02,.4-.06,.49-.13,.14-.1,.25-.31,.34-.62l1.25-4.5c.04-.15,.07-.27,.09-.37,.02-.1,.03-.18,.03-.25,0-.16-.06-.27-.18-.33s-.33-.1-.61-.1V.13h5.07l-.32,1.55h-.21c0-.11,.02-.21,.02-.3,0-.09,0-.13,0-.1,0-.33-.11-.55-.36-.66-.24-.1-.74-.16-1.5-.16-.35,0-.57,.02-.66,.05-.09,.03-.15,.1-.18,.21l-.66,2.37c.89-.03,1.43-.09,1.61-.17,.18-.08,.37-.36,.58-.82l.19,.04-.7,2.36-.2-.04c.03-.2,.05-.32,.06-.36,0-.04,0-.09,0-.14,0-.22-.08-.36-.23-.42-.15-.06-.44-.1-.84-.1h-.58l-.63,2.27c-.02,.07-.04,.13-.05,.19-.01,.06-.02,.12-.02,.18,0,.11,.03,.19,.08,.24,.1,.09,.3,.14,.61,.14,.91,0,1.56-.1,1.96-.29,.39-.2,.78-.57,1.18-1.13l.16,.08-.64,1.65h-5.17v-.16Z"/>
      <path class="cls-1" d="M101.95,.7c.44,.46,.66,1.03,.66,1.71,0,1.19-.44,2.25-1.32,3.18-.87,.91-1.83,1.37-2.89,1.37-.67,0-1.22-.21-1.67-.63-.44-.42-.66-1.01-.66-1.78,0-1.1,.44-2.13,1.31-3.09,.87-.96,1.82-1.45,2.83-1.45,.72,0,1.29,.23,1.73,.7Zm-1.15,4.07c.5-.98,.75-1.9,.75-2.74,0-.52-.11-.93-.34-1.22-.23-.29-.57-.44-1.02-.44-.87,0-1.62,.58-2.24,1.75-.52,.98-.78,1.93-.78,2.85,0,.54,.12,.94,.35,1.22,.24,.27,.56,.41,.98,.41,.9,0,1.67-.61,2.29-1.83Z"/>
      <path class="cls-1" d="M103.09,6.61c.24-.02,.4-.06,.49-.13,.14-.1,.25-.31,.34-.62l1.25-4.5c.03-.11,.05-.21,.07-.28,.03-.14,.05-.25,.05-.32,0-.18-.06-.29-.18-.35-.12-.06-.32-.09-.61-.1V.13h5.07l-.32,1.55h-.21c0-.12,.01-.21,.01-.26,0-.08,0-.14,0-.18,0-.31-.12-.51-.36-.62-.24-.1-.74-.15-1.49-.15-.32,0-.54,.02-.64,.04-.11,.03-.18,.1-.21,.22l-.67,2.36c.87-.03,1.4-.08,1.58-.16,.18-.08,.39-.34,.62-.79l.18,.05-.77,2.38-.18-.05c.04-.2,.06-.33,.07-.39,0-.07,.01-.13,.01-.19,0-.23-.1-.38-.29-.45-.12-.04-.37-.06-.75-.06h-.58l-.62,2.26c-.05,.18-.08,.28-.09,.32,0,.04-.01,.08-.01,.14,0,.18,.07,.3,.22,.36,.1,.04,.28,.07,.56,.08v.16h-2.56v-.16Z"/>
      <path class="cls-1" d="M112.27,6.61c.24-.02,.4-.06,.49-.13,.14-.1,.25-.31,.34-.62l1.25-4.5c.05-.18,.08-.31,.09-.39,.02-.07,.02-.15,.02-.22,0-.17-.06-.28-.17-.35-.11-.06-.32-.1-.62-.11V.13h2.78v.16c-.27,.02-.47,.07-.59,.13-.21,.11-.35,.32-.43,.62l-.55,1.98h3.15l.5-1.8c.03-.13,.05-.23,.06-.31,0-.08,.01-.14,.01-.2,0-.16-.08-.28-.24-.35-.11-.04-.27-.07-.47-.07V.13h2.52v.16c-.27,.03-.45,.09-.55,.17-.1,.08-.19,.27-.28,.58l-1.24,4.5-.09,.39s-.01,.07-.02,.1c0,.03,0,.07,0,.1,0,.19,.06,.32,.17,.37,.11,.05,.32,.09,.62,.1v.16h-2.78v-.16c.27-.02,.46-.06,.59-.13,.21-.11,.35-.32,.44-.62l.67-2.41h-3.15l-.58,2.1-.09,.39s-.01,.07-.02,.1c0,.03,0,.07,0,.1,0,.19,.05,.31,.16,.36,.1,.05,.29,.09,.56,.11v.16h-2.52v-.16Z"/>
      <path class="cls-1" d="M121.93,1.35c.04-.13,.06-.23,.08-.31,.03-.13,.04-.24,.04-.32,0-.17-.06-.28-.19-.33-.13-.05-.33-.08-.6-.09V.13h2.79v.16c-.28,.02-.48,.07-.6,.13-.2,.11-.35,.31-.43,.62l-.76,2.72c-.08,.27-.14,.52-.2,.75-.09,.37-.13,.63-.13,.8,0,.51,.22,.87,.66,1.08,.23,.11,.47,.16,.71,.16,.6,0,1.07-.18,1.41-.54,.35-.36,.62-.92,.82-1.68l.79-3.04c.04-.14,.06-.24,.07-.32,.01-.08,.02-.14,.02-.2,0-.19-.08-.32-.24-.39-.09-.04-.25-.07-.48-.08V.13h2.03v.16c-.3,.06-.51,.17-.61,.32-.11,.15-.26,.54-.44,1.19l-.71,2.56c-.24,.94-.56,1.61-.99,2.01-.43,.4-1.03,.6-1.8,.6-.6,0-1.12-.16-1.54-.49-.42-.33-.63-.74-.63-1.25,0-.17,.03-.39,.09-.67,.06-.28,.13-.61,.23-.97l.62-2.24Z"/>
      <path class="cls-1" d="M127.48,6.61c.24-.02,.4-.06,.49-.13,.14-.1,.25-.31,.34-.62l1.25-4.5c.05-.18,.08-.31,.09-.39,.02-.07,.02-.15,.02-.22,0-.16-.05-.27-.16-.34-.11-.06-.29-.1-.56-.12V.13h2.52v.16c-.27,.04-.45,.09-.55,.17-.1,.08-.19,.27-.28,.58l-1.25,4.5c-.04,.16-.07,.29-.09,.39-.02,.1-.03,.18-.03,.23,0,.17,.06,.28,.18,.33,.12,.06,.29,.09,.52,.1v.16h-2.5v-.16Z"/>
      <path class="cls-1" d="M131.86,4.18h2.24l-.14,.64h-2.24l.14-.64Z"/>
      <path class="cls-1" d="M135.65,6.61c.3-.02,.52-.07,.64-.13,.2-.11,.34-.31,.43-.62l.6-2.16-.78-2.73c-.08-.29-.16-.46-.24-.53-.08-.06-.25-.11-.51-.14V.13h2.41v.16c-.25,.01-.41,.04-.51,.07-.15,.06-.23,.16-.23,.31,0,.05,0,.12,.03,.21,.02,.09,.03,.15,.04,.17l.6,2.17,1.13-1.33c.25-.3,.43-.53,.53-.69,.18-.26,.27-.46,.27-.59s-.07-.22-.2-.27c-.08-.03-.25-.04-.49-.05V.13h2.12v.16c-.2,.02-.35,.07-.46,.15-.11,.08-.26,.23-.45,.46l-2.25,2.76-.52,1.88c-.05,.16-.08,.28-.09,.38-.02,.1-.02,.17-.02,.23,0,.19,.06,.31,.19,.36,.13,.05,.37,.08,.72,.09v.16h-2.95v-.16Z"/>
      <path class="cls-1" d="M147.24,.7c.44,.46,.66,1.03,.66,1.71,0,1.19-.44,2.25-1.32,3.18-.87,.91-1.83,1.37-2.89,1.37-.67,0-1.22-.21-1.67-.63-.44-.42-.66-1.01-.66-1.78,0-1.1,.44-2.13,1.31-3.09,.87-.96,1.82-1.45,2.83-1.45,.72,0,1.29,.23,1.73,.7Zm-1.15,4.07c.5-.98,.75-1.9,.75-2.74,0-.52-.11-.93-.34-1.22-.23-.29-.56-.44-1.02-.44-.87,0-1.62,.58-2.24,1.75-.52,.98-.78,1.93-.78,2.85,0,.54,.12,.94,.35,1.22,.24,.27,.56,.41,.98,.41,.9,0,1.67-.61,2.29-1.83Z"/>
    </g>
  </g>
</svg>