<?xml version="1.0" encoding="UTF-8"?>
<svg id="_圖層_2" data-name="圖層 2" xmlns="http://www.w3.org/2000/svg" viewBox="0 0 36.38 36.38">
  <defs>
    <style>
      .cls-1 {
        fill: #364447;
      }

      .cls-2 {
        fill: none;
        stroke: #364447;
        stroke-miterlimit: 10;
        stroke-width: .66px;
      }
    </style>
  </defs>
  <g id="_圖層_1-2" data-name="圖層 1">
    <g>
      <path class="cls-1" d="M12.27,7.16c.73,.23,1.09,.47,1.09,.73s-.21,.41-.62,.47c-.41,.05-.65,.16-.7,.26-.1,.18-.21,.34-.31,.49h2.75s.29-.26,.75-.8c.65-.73,1.06-1.11,1.27-1.11,.18,0,.75,.42,1.69,1.24,.57,.52,.86,.86,.86,.99,0,.26-.18,.39-.52,.39h-5c.36,.16,.67,.34,.93,.49,.54,.36,.83,.73,.83,1.04,0,.57-.21,1.04-.6,1.37-.26,.23-.54,.34-.91,.34-.18,0-.34-.05-.44-.18-.13-.1-.23-.42-.31-.88-.1-.62-.36-1.35-.78-2.18h-1.01c-.41,.57-.88,1.06-1.35,1.48-.8,.73-1.84,1.45-3.11,2.18l-.31-.31c.93-1.09,1.66-2.13,2.18-3.08,.49-.99,.91-2.2,1.27-3.6,.8,.26,1.58,.49,2.36,.7Zm-2.05,15.01h6.9v-.21c0-.83-.1-1.58-.31-2.23,.75,.1,1.66,.26,2.75,.41,.99,.1,1.5,.29,1.5,.49,0,.31-.26,.54-.73,.7-.34,.1-.49,.31-.49,.62v.21h5.47c.05-.03,.34-.36,.86-1.01,.6-.73,.96-1.12,1.06-1.12,.31,0,.83,.36,1.5,1.09,.67,.73,1.04,1.19,1.04,1.35,0,.26-.18,.39-.52,.39h-8.87c1.32,.93,2.8,1.61,4.43,2.05,1.79,.52,3.58,.88,5.37,1.09l-.1,.62c-.73,.23-1.24,.73-1.61,1.48-.18,.57-.36,.86-.52,.86-.34,0-1.11-.26-2.31-.78-1.24-.57-2.44-1.3-3.53-2.15-.91-.78-1.66-1.61-2.28-2.49v5.91c0,.31-.41,.57-1.22,.73-.39,.05-.65,.08-.8,.08-.54,0-.8-.18-.8-.49,.05-.47,.1-.8,.1-1.01v-4.41c-.7,.6-1.35,1.06-1.94,1.43-1.09,.65-2.31,1.22-3.71,1.71-1.4,.49-2.93,.91-4.59,1.27l-.21-.52c1.66-.57,3.24-1.32,4.72-2.26,1.4-.88,2.59-1.92,3.55-3.11h-4.72c-1.48,0-2.52,.05-3.14,.1l-.41-1.01c.83,.16,2,.21,3.55,.21Zm.7-8.3h3.14c.05-.03,.23-.23,.57-.62,.41-.47,.67-.7,.75-.7,.21,0,.54,.26,1.01,.73,.47,.49,.73,.78,.73,.88,0,.29-.1,.42-.31,.42h-3.24v2.8c.96-.08,2.05-.21,3.24-.36l.21,.39c-1.56,.91-2.88,1.53-3.97,1.84-1.24,.39-2.28,.65-3.11,.75-.49,.08-.73,.16-.73,.26-.05,.13-.08,.31-.1,.52-.05,.34-.16,.49-.31,.49-.31,0-.65-.62-1.04-1.87-.13-.34-.31-.91-.57-1.69,1.24,0,2.49-.05,3.73-.16v-2.98c-1.48,0-2.51,.05-3.14,.1l-.39-1.01c.8,.16,1.97,.21,3.53,.21Zm11.67-6.71c.73,.23,1.11,.47,1.11,.73s-.21,.41-.62,.47c-.41,.05-.65,.16-.7,.26-.13,.18-.26,.34-.36,.49h3.6s.26-.26,.75-.8c.65-.73,1.06-1.11,1.27-1.11,.18,0,.73,.42,1.66,1.24,.57,.52,.88,.86,.88,.99,0,.26-.18,.39-.52,.39h-5.42c.57,.18,.99,.34,1.24,.49,.62,.36,.93,.67,.93,.93,0,.47-.1,.83-.31,1.12-.26,.26-.49,.39-.73,.39,.16,.13,.31,.26,.49,.39,.62,.47,.96,.86,.96,1.14,0,.21-.21,.41-.6,.67-.41,.18-.62,.39-.62,.65v1.12c0,.36,.08,.6,.23,.67,.16,.1,.47,.13,.93,.13l.52-.05c.26,0,.49-.23,.65-.75,.16-.52,.34-1.22,.6-2.13l.41,.1,.1,1.32c0,.36,.16,.75,.47,1.19,.42,.42,.65,.73,.65,.93,0,.52-.34,.91-.99,1.11-.78,.26-1.58,.39-2.41,.39-1.5,0-2.36-.08-2.51-.23-.67-.21-.98-.96-.98-2.28v-3.06h-.75c-.21,.83-.47,1.56-.8,2.13,.1,.08,.21,.13,.29,.18,.31,.21,.47,.44,.47,.65,0,.52-.21,.96-.57,1.32-.36,.47-.78,.7-1.27,.7-.18,0-.49-.26-.93-.83-.41,.23-.93,.44-1.5,.65-.96,.31-2.18,.54-3.63,.67l-.1-.39c.96-.26,1.71-.52,2.23-.78,.44-.21,.91-.52,1.4-.93,.16-.13,.29-.29,.44-.47-.52-.47-1.09-.88-1.74-1.27l.31-.6c.83,.1,1.58,.23,2.2,.34,.16-.44,.26-.91,.36-1.37-.78,.03-1.45,.05-1.97,.1l-.41-1.01c.93,.16,2.05,.21,3.34,.21h2.33c.29-.26,.52-.47,.73-.62,.18-.13,.34-.23,.49-.31-.13-.16-.23-.41-.31-.75-.13-.62-.47-1.25-1.04-1.87h-1.43c-.29,.31-.57,.57-.86,.8-.65,.52-1.5,1.06-2.54,1.63l-.31-.31c.67-.88,1.22-1.74,1.58-2.51,.36-.83,.7-1.81,.96-2.95,.8,.26,1.58,.49,2.33,.7Z"/>
      <circle class="cls-2" cx="18.19" cy="18.19" r="17.86" transform="translate(-3.69 31.71) rotate(-76.72)"/>
    </g>
  </g>
</svg>