<?xml version="1.0" encoding="UTF-8"?>
<svg id="_圖層_2" data-name="圖層 2" xmlns="http://www.w3.org/2000/svg" viewBox="0 0 11.57 11.57">
  <defs>
    <style>
      .cls-1 {
        fill: #211815;
      }

      .cls-2 {
        fill: #211307;
      }

      .cls-3 {
        fill: none;
        stroke: #21150f;
        stroke-width: .02px;
      }

      .cls-4 {
        fill: #cc2f24;
      }

      .cls-5 {
        fill: #210d02;
      }
    </style>
  </defs>
  <g id="_圖層_1-2" data-name="圖層 1">
    <g>
      <rect class="cls-4" width="11.57" height="11.57"/>
      <rect class="cls-5" x=".49" y="7.57" width="3.57" height=".26"/>
      <rect class="cls-5" x=".49" y="8.12" width="3.57" height=".26"/>
      <rect class="cls-5" x="4.06" y="7.85" width="3.57" height=".26"/>
      <rect class="cls-5" x="4.06" y="8.39" width="3.57" height=".26"/>
      <rect class="cls-5" x="7.63" y="8.12" width="3.57" height=".26"/>
      <rect class="cls-1" x="7.63" y="8.67" width="3.57" height=".26"/>
      <rect class="cls-1" x=".49" y="8.63" width="3.57" height=".26"/>
      <line class="cls-3" x1=".51" y1="9.28" x2="11.16" y2="9.28"/>
      <g>
        <path class="cls-2" d="M.91,9.71h.12l.18,.5h-.11l-.03-.1h-.19l-.03,.1h-.11l.18-.5Zm0,.31h.13l-.06-.2-.07,.2Z"/>
        <path class="cls-2" d="M2.13,9.76s.02,.05,.02,.08,0,.06-.02,.07c0,.01-.02,.02-.04,.03,.03,0,.05,.02,.06,.04,.01,.02,.02,.04,.02,.07,0,.03,0,.06-.02,.08,0,.02-.02,.03-.04,.04-.02,.01-.04,.02-.06,.03-.02,0-.05,0-.07,0h-.23v-.5h.24c.06,0,.1,.02,.13,.05Zm-.27,.03v.11h.12s.04,0,.05-.01c.01,0,.02-.02,.02-.04,0-.02,0-.04-.03-.05-.02,0-.04,0-.06,0h-.11Zm0,.19v.13h.12s.04,0,.05,0c.02-.01,.03-.03,.03-.06,0-.03-.01-.04-.03-.05-.01,0-.03,0-.05,0h-.12Z"/>
        <path class="cls-2" d="M2.77,9.8h-.27v.11h.24v.09h-.24v.13h.28v.09h-.38v-.5h.37v.09Z"/>
        <path class="cls-2" d="M3.37,9.71v.09h-.15v.41h-.11v-.41h-.15v-.09h.41Z"/>
        <path class="cls-2" d="M3.94,9.71v.09h-.15v.41h-.11v-.41h-.15v-.09h.41Z"/>
        <path class="cls-2" d="M4.51,9.8h-.27v.11h.24v.09h-.24v.13h.28v.09h-.38v-.5h.37v.09Z"/>
        <path class="cls-2" d="M5.07,9.72s.03,.02,.05,.04c.01,.01,.02,.03,.03,.04,0,.02,0,.03,0,.05,0,.02,0,.05-.02,.07-.01,.02-.03,.04-.06,.05,.02,0,.04,.02,.05,.04,0,.02,.01,.04,.01,.08v.03s0,.04,0,.05c0,.01,0,.02,.02,.03h0s-.12,.01-.12,.01c0-.01,0-.02,0-.03,0-.01,0-.03,0-.04v-.05s0-.05-.02-.06-.03-.02-.06-.02h-.1v.2h-.1v-.5h.24s.06,0,.08,.01Zm-.22,.08v.13h.11s.04,0,.05,0c.02,0,.03-.03,.03-.06,0-.03,0-.05-.03-.06-.01,0-.03,0-.05,0h-.12Z"/>
        <path class="cls-2" d="M6.09,9.71v.09h-.15v.41h-.11v-.41h-.15v-.09h.41Z"/>
        <path class="cls-2" d="M6.68,10.17s-.09,.06-.17,.06-.13-.02-.17-.06c-.05-.05-.08-.12-.08-.21s.03-.16,.08-.21c.04-.04,.09-.06,.17-.06s.13,.02,.17,.06c.05,.05,.08,.12,.08,.21s-.03,.16-.08,.21Zm-.07-.08s.04-.08,.04-.13-.01-.1-.04-.13c-.02-.03-.06-.05-.1-.05s-.07,.02-.1,.05c-.02,.03-.04,.07-.04,.13s.01,.1,.04,.13c.02,.03,.06,.05,.1,.05s.08-.02,.1-.05Z"/>
        <path class="cls-2" d="M7.31,9.71h.15v.5h-.1v-.34s0-.02,0-.04v-.04l-.1,.42h-.1l-.09-.42s0,.02,0,.04c0,.02,0,.03,0,.04v.34h-.1v-.5h.15l.09,.4,.09-.4Z"/>
        <path class="cls-2" d="M8.09,10.17s-.09,.06-.17,.06-.13-.02-.16-.06c-.05-.05-.08-.12-.08-.21s.03-.16,.08-.21c.04-.04,.09-.06,.16-.06s.13,.02,.17,.06c.05,.05,.08,.12,.08,.21s-.03,.16-.08,.21Zm-.07-.08s.04-.08,.04-.13-.01-.1-.04-.13c-.02-.03-.06-.05-.1-.05s-.07,.02-.1,.05c-.02,.03-.04,.07-.04,.13s.01,.1,.04,.13c.02,.03,.06,.05,.1,.05s.08-.02,.1-.05Z"/>
        <path class="cls-2" d="M8.71,9.72s.03,.02,.05,.04c.01,.01,.02,.03,.03,.04,0,.02,0,.03,0,.05,0,.02,0,.05-.02,.07-.01,.02-.03,.04-.06,.05,.02,0,.04,.02,.05,.04,0,.02,.01,.04,.01,.08v.03s0,.04,0,.05c0,.01,0,.02,.02,.03h0s-.12,.01-.12,.01c0-.01,0-.02,0-.03,0-.01,0-.03,0-.04v-.05s0-.05-.02-.06c-.01-.01-.03-.02-.06-.02h-.1v.2h-.1v-.5h.24s.06,0,.08,.01Zm-.22,.08v.13h.11s.04,0,.05,0c.02,0,.03-.03,.03-.06,0-.03,0-.05-.03-.06-.01,0-.03,0-.05,0h-.12Z"/>
        <path class="cls-2" d="M9.35,9.72s.03,.02,.05,.04c.01,.01,.02,.03,.03,.04,0,.02,0,.03,0,.05,0,.02,0,.05-.02,.07-.01,.02-.03,.04-.06,.05,.02,0,.04,.02,.05,.04,0,.02,.01,.04,.01,.08v.03s0,.04,0,.05c0,.01,0,.02,.02,.03h0s-.12,.01-.12,.01c0-.01,0-.02,0-.03,0-.01,0-.03,0-.04v-.05s0-.05-.02-.06-.03-.02-.06-.02h-.1v.2h-.1v-.5h.24s.06,0,.08,.01Zm-.22,.08v.13h.11s.04,0,.05,0c.02,0,.03-.03,.03-.06,0-.03,0-.05-.03-.06-.01,0-.03,0-.05,0h-.12Z"/>
        <path class="cls-2" d="M10.06,10.17s-.09,.06-.17,.06-.13-.02-.16-.06c-.05-.05-.08-.12-.08-.21s.03-.16,.08-.21c.04-.04,.09-.06,.16-.06s.13,.02,.17,.06c.05,.05,.08,.12,.08,.21s-.03,.16-.08,.21Zm-.07-.08s.04-.08,.04-.13-.01-.1-.04-.13c-.02-.03-.06-.05-.1-.05s-.07,.02-.1,.05c-.02,.03-.04,.07-.04,.13s.01,.1,.04,.13c.02,.03,.06,.05,.1,.05s.08-.02,.1-.05Z"/>
        <path class="cls-2" d="M10.43,9.71l.07,.29v.08s.03-.08,.03-.08l.06-.29h.11l.06,.29,.02,.08,.02-.08,.07-.29h.11l-.14,.5h-.1l-.06-.29-.02-.1-.02,.1-.06,.29h-.1l-.14-.5h.11Z"/>
      </g>
    </g>
  </g>
</svg>