<?xml version="1.0" encoding="UTF-8"?>
<svg id="_圖層_2" data-name="圖層 2" xmlns="http://www.w3.org/2000/svg" viewBox="0 0 206.29 119.6">
  <defs>
    <style>
      .cls-1 {
        fill: #fff;
      }

      .cls-2 {
        fill: #9a8154;
      }
    </style>
  </defs>
  <g id="_圖層_1-2" data-name="圖層 1">
    <g>
      <rect class="cls-1" y="79.02" width="2.79" height="40.48"/>
      <polygon class="cls-1" points="30.33 117.79 27.51 114.91 27.51 79.02 30.33 79.02 30.33 117.79"/>
      <polygon class="cls-1" points="95.25 79.01 78.06 114.74 76.79 110.91 92.14 79.01 95.25 79.01"/>
      <rect class="cls-1" x="37.02" y="79.02" width="5.92" height="40.48"/>
      <rect class="cls-1" x="37.02" y="79.02" width="16.15" height="1.86"/>
      <rect class="cls-1" x="37.02" y="95.89" width="16.15" height="1.86"/>
      <rect class="cls-1" x="37.02" y="117.64" width="25.15" height="1.86"/>
      <rect class="cls-1" x="163.58" y="79.02" width="5.92" height="40.48"/>
      <rect class="cls-1" x="163.58" y="79.02" width="16.15" height="1.86"/>
      <rect class="cls-1" x="163.58" y="95.89" width="16.15" height="1.86"/>
      <rect class="cls-1" x="185.93" y="79.02" width="5.92" height="40.48"/>
      <rect class="cls-1" x="185.93" y="79.02" width="20.31" height="1.86"/>
      <rect class="cls-1" x="186.13" y="95.89" width="16.15" height="1.86"/>
      <rect class="cls-1" x="185.93" y="117.64" width="20.36" height="1.86"/>
      <rect class="cls-1" x="119.28" y="79.02" width="5.92" height="40.48"/>
      <rect class="cls-1" x="149.55" y="79.02" width="5.92" height="40.48"/>
      <rect class="cls-1" x="119.28" y="117.64" width="25.15" height="1.86"/>
      <polygon class="cls-1" points="0 79.02 5.36 79.02 30.33 109.84 30.33 119.46 .52 83.52 0 79.02"/>
      <polygon class="cls-1" points="56.84 78.94 63.22 78.94 79.2 112.35 75.88 119.6 56.84 78.94"/>
      <polygon class="cls-1" points="108.7 79.01 91.51 114.74 90.23 110.91 105.59 79.01 108.7 79.01"/>
      <polygon class="cls-1" points="70.29 78.94 76.66 78.94 92.64 112.35 89.33 119.6 70.29 78.94"/>
    </g>
    <g>
      <path class="cls-2" d="M105.25,0c-11.45,0-20.77,9.32-20.77,20.77v24.97c0,11.45,9.32,20.77,20.77,20.77s20.77-9.32,20.77-20.77V20.77c0-11.45-9.32-20.77-20.77-20.77Zm19.41,45.75c0,10.7-8.71,19.41-19.41,19.41s-19.41-8.7-19.41-19.41V20.77c0-10.7,8.7-19.41,19.41-19.41s19.41,8.71,19.41,19.41v24.97Z"/>
      <path class="cls-2" d="M122.45,16.42c-1.74-7.8-8.73-13.66-17.05-13.66h-.27c-8.22,0-15.13,5.71-16.98,13.37,0,0,0,.02,0,.03,0,0,0,.02,0,.03,0,0,0,.02,0,.03t0,0s0,.04-.01,.06c-.18,.56-.28,1.14-.31,1.74,0,.03,0,.05-.01,.08-.09,.7-.13,1.42-.13,2.14v26.05c0,.71,.04,1.4,.13,2.09h0c0,.92,.19,1.81,.53,2.64,2.06,7.35,8.82,12.75,16.82,12.75h.27c8.06,0,14.86-5.49,16.87-12.92,.28-.72,.44-1.48,.46-2.28,.1-.74,.15-1.5,.15-2.27V20.24c0-.81-.05-1.61-.16-2.39,0-.02,0-.04-.01-.07-.04-.42-.11-.82-.22-1.22,0-.05-.02-.09-.03-.14Zm-.14,1.94c.07,.61,.1,1.24,.1,1.88v3.55c-.2-.64-.48-1.25-.86-1.82h0c-.15-.23-.31-.44-.48-.65-.7-.86-1.58-1.58-2.58-2.12-.01,0-.03-.02-.04-.02-.03-.02-.06-.03-.09-.04-.61-.31-1.26-.56-1.94-.74-.72-.19-1.47-.3-2.24-.32h-.11c-.12,0-.25,0-.36,0h-8.15s-.04,0-.06,0c.17-3.89,3.88-7.02,8.38-7.02,3.95,0,7.27,2.39,8.15,5.6,.08,.39,.15,.79,.21,1.19,.01,.17,.03,.34,.03,.52h.04s0,0,0,0Zm.1,20.49c-.84-2.7-3.31-4.82-6.43-5.49,3.12-.67,5.59-2.79,6.43-5.49v10.98Zm0,7.43c0,.71-.04,1.4-.13,2.09h-.01s0,.09,0,.14c-.1,.75-.24,1.48-.44,2.19-1.12,2.89-4.26,4.97-7.95,4.97-4.5,0-8.21-3.12-8.38-7.02h8.3s.09,0,.09,0c3.16,0,6.11-1.49,7.68-3.9h0s0,0,0,0h0c.38-.57,.66-1.18,.86-1.81v3.34Zm-34.3-3.28c.2,.61,.48,1.21,.84,1.75,.07,.11,.15,.22,.23,.33,.08,.11,.16,.21,.25,.32,.09,.1,.17,.21,.26,.31,.09,.1,.18,.2,.28,.3,1.2,1.22,2.78,2.06,4.55,2.42,.12,.02,.24,.05,.35,.07,.02,0,.04,0,.06,0,.14,.03,.29,.05,.44,.06,.26,.04,.53,.06,.8,.07h0c.15,0,.3,.01,.44,.01h0s8.39,0,8.39,0c-.18,3.89-3.88,7.02-8.39,7.02-3.62,0-6.71-2-7.89-4.79,0,0,0,0,0-.02-.41-1.46-.62-2.99-.62-4.58v-3.28Zm0-15.07c.86,2.67,3.31,4.77,6.41,5.43-3.1,.66-5.55,2.76-6.41,5.44v-10.87Zm0-7.69c0-.63,.04-1.26,.1-1.88,0,0,0,0,0,0h.02c0-.13,.01-.26,.02-.39,.07-.52,.16-1.05,.29-1.55,.98-3.08,4.23-5.36,8.08-5.36,4.5,0,8.21,3.13,8.38,7.02-.02,0-.04,0-.05,0h0s0,0,0,0h-8.47s-.06,0-.1,0c-.03,0-.07,0-.1,0-.05,0-.1,0-.15,0h-.18s-.06,.02-.09,.02c-.03,0-.06,0-.1,0,0,0,0,0,0,0-.04,0-.08,0-.12,.01-.04,0-.07,0-.11,.01-.06,0-.12,.01-.18,.02-.03,0-.06,0-.09,.01-.09,.01-.18,.03-.27,.04-.05,0-.11,.01-.16,.02-.07,.01-.14,.03-.2,.04-.13,.03-.25,.06-.38,.09-.04,0-.07,.02-.11,.03-.03,0-.05,.02-.08,.02-.07,.02-.15,.04-.22,.06-.05,.01-.1,.03-.15,.04-.03,.01-.07,.02-.1,.03-.12,.04-.24,.08-.36,.12-.02,0-.05,.02-.07,.03-.05,.02-.09,.04-.14,.06-.08,.03-.16,.06-.25,.1-.02,.01-.05,.02-.07,.03-.11,.05-.22,.1-.33,.15-.02,0-.04,.02-.06,.03-.03,.01-.06,.03-.09,.04-.03,.01-.05,.03-.08,.04-.05,.02-.09,.05-.13,.08-.24,.13-.47,.26-.69,.4-.01,0-.03,.02-.04,.02-.02,.01-.05,.03-.06,.05-.07,.05-.14,.1-.21,.15-.06,.04-.12,.08-.18,.13-.01,0-.02,.02-.03,.02-.08,.06-.15,.12-.23,.19-.1,.09-.21,.17-.3,.26-.01,.01-.03,.02-.04,.04-.05,.04-.1,.08-.14,.12-.02,.02-.03,.03-.05,.05-.02,.02-.05,.05-.07,.07-.02,.02-.05,.05-.07,.07-.08,.09-.16,.17-.25,.26-.03,.03-.06,.07-.09,.1-.08,.1-.16,.19-.24,.29h0s0,.01,0,.02c0,0-.01,.02-.02,.02-.01,.02-.03,.03-.04,.05-.01,.02-.03,.04-.04,.05,0,0,0,0,0,0-.09,.12-.17,.24-.25,.36-.36,.55-.65,1.14-.84,1.76v-3.49Zm25.82-1.71c.08,0,.17,0,.25,0,.04,0,.07,0,.11,0,.21,0,.43,.03,.64,.05,.08,0,.16,.02,.24,.03,.23,.03,.46,.07,.69,.12,.07,.01,.13,.03,.2,.05,.2,.05,.4,.1,.6,.16,.05,.01,.09,.03,.14,.04,.23,.07,.45,.16,.68,.25,.05,.02,.1,.04,.16,.07,.23,.1,.45,.2,.66,.32,.01,0,.03,.02,.04,.02,.22,.12,.43,.25,.64,.38,.02,.01,.03,.02,.05,.03,.21,.14,.42,.3,.62,.46,.01,.01,.03,.02,.04,.03,.2,.17,.39,.34,.58,.53,.15,.15,.3,.32,.44,.48,.04,.05,.08,.1,.12,.15,.11,.15,.22,.3,.33,.45,.02,.02,.03,.05,.05,.07h0s0,0,0,0c.72,1.09,1.1,2.34,1.1,3.61,0,3.96-3.64,7.2-8.2,7.3v-6.64s0-.02,0-.03c0-.01,0-.02,0-.04,.02-.14,.03-.29,.03-.43h0v-.16c0-1.16-.3-2.32-.86-3.36-.55-1-1.36-1.91-2.34-2.62-.78-.57-1.68-1.02-2.66-1.33h5.36c.06,0,.11,0,.17,0h.16Zm7.23,25.97c-1.47,2.23-4,3.41-6.6,3.64-1.07,.09-2.14,.07-3.22,.07-.71,0-1.42,0-2.13,0-.28,0-.72-.09-.99,0,.5-.15,.98-.35,1.45-.59,1.05-.53,2.01-1.27,2.76-2.19,.71-.86,1.24-1.88,1.49-2.97,.24-1.03,.15-2.1,.16-3.15,0-.82,0-1.63,.01-2.45,0-.8,0-1.6,.01-2.41,0-.29,0-.57,0-.86,4.53,.1,8.17,3.34,8.17,7.3,0,1.31-.42,2.54-1.11,3.6Zm-15.71,3.7v-7.62h0c0-.11-.02-.24-.04-.38-.01-.11-.03-.23-.05-.34l-.02-.12c-.41-1.53-1.79-2.66-3.61-2.96-1.9-.32-3.75,.39-4.71,1.82-.03,.05-.07,.1-.1,.15-.02,.03-.04,.05-.05,.09v-10.55c.05,.13,.1,.25,.15,.38,1.04,2.29,3.21,3.99,5.94,4.66,.39,.09,.76,.16,1.11,.2,.38,.05,.76,.08,1.16,.08h.11c2.25,0,4.36,.76,5.95,2.15,.95,.83,2.09,2.26,2.34,4.44v.11s0,.42,0,.42h.03s0,.09,0,.13v.06c0,2.59-1.61,5.01-4.19,6.31-1.22,.62-2.6,.96-4.01,.98Zm-8.91,0c-.19,0-.37,0-.56-.01-.19-.01-.37-.03-.56-.05-.15-.02-.31-.04-.47-.07-.11-.02-.23-.04-.34-.06-1.56-.34-2.99-1.06-4.09-2.07-.08-.07-.15-.15-.23-.22-.09-.09-.17-.18-.26-.27-.08-.08-.15-.17-.21-.25-.07-.09-.15-.17-.21-.26-.1-.13-.19-.26-.28-.4-.72-1.09-1.1-2.34-1.1-3.61,0-3.96,3.64-7.2,8.18-7.3v6.45l-.03,.2c0,.07-.01,.13-.02,.2,0,.04,0,.07,0,.1v.29c0,1.16,.29,2.28,.84,3.29,.06,.13,.14,.26,.21,.38,.06,.1,.13,.2,.2,.3,0,0,0,0,0,0,.05,.07,.1,.15,.15,.22,0,.02,.02,.03,.03,.05,.03,.04,.05,.07,.08,.1,.74,.99,1.74,1.83,2.97,2.44,.46,.23,.93,.43,1.42,.58h-5.71Zm9.04-29.67c.5,.02,.95,.06,1.35,.14,1.37,.26,2.65,.79,3.69,1.55,.93,.67,1.69,1.53,2.21,2.47,.53,.97,.81,2.05,.81,3.14v.13c0,.08,0,.15-.02,.25,0,.04,0,.09,0,.14-.21,1.77-1.96,3.16-4.08,3.16-2.22,0-4.04-1.55-4.07-3.46v-7.53h.1Zm-.56,0v7.46h0s0,.04,0,.06h0s0,.01,0,.01c.05,2.15,2.06,3.9,4.53,3.9,1.77,0,3.31-.89,4.06-2.19v5.58l.04,.23-.02,4.62c-.44-1.05-1.14-2.01-2.05-2.8-1.64-1.43-3.81-2.24-6.12-2.26-.04,0-.09,0-.13,0h-.05c-.39,0-.78-.02-1.15-.07-.34-.04-.69-.1-1.06-.2-2.6-.63-4.64-2.24-5.63-4.4-.15-.32-.26-.64-.36-.96-.1-.35-.16-.71-.2-1.1,0-.09-.01-.18-.02-.26h0v-.53h0c.09-2.51,1.67-4.83,4.18-6.1,1.18-.6,2.51-.94,3.88-.99h.1Zm-15.69,3.69c1.47-2.26,4.24-3.67,7.23-3.69h5.68c-.49,.15-.96,.35-1.41,.58-2.67,1.35-4.35,3.82-4.43,6.51,0,.07,0,.14,0,.21v.06c0,.09,0,.17,0,.26v6.98c-4.53-.1-8.18-3.34-8.18-7.3,0-1.27,.38-2.52,1.1-3.61Zm11.65,24.93c-.62-.31-1.2-.7-1.73-1.15-.52-.45-.98-.97-1.35-1.54-.37-.58-.66-1.22-.83-1.88-.12-.44-.19-.9-.22-1.36v-1.13c.02-.1,.05-.2,.07-.29,.08-.28,.2-.55,.37-.81,.03-.05,.06-.09,.1-.15,.85-1.27,2.52-1.89,4.25-1.61,1.1,.18,2.17,.74,2.8,1.67,.69,1.02,.54,2.26,.54,3.42v5.36s0,.45,0,.45c-1.41-.03-2.79-.36-4.01-.98ZM121.26,14.09s0,0,0,.01c-1.58-2.11-4.3-3.5-7.39-3.5-3.9,0-7.23,2.24-8.4,5.33V3.22h0c7.18,.04,13.33,4.54,15.78,10.88Zm-31.99-.05h0c2.47-6.3,8.59-10.78,15.75-10.82V15.94c-1.17-3.09-4.5-5.33-8.4-5.33-3.06,0-5.76,1.37-7.35,3.44,0,0,0,0,0,0Zm.16,38.84c1.6,1.96,4.23,3.25,7.19,3.25,3.9,0,7.23-2.24,8.4-5.33v12.51c-7-.04-13.02-4.33-15.59-10.42Zm16.04,10.42v-12.5c1.17,3.09,4.5,5.32,8.4,5.32,2.98,0,5.62-1.3,7.23-3.29-2.56,6.11-8.59,10.43-15.62,10.46Z"/>
    </g>
  </g>
</svg>