<?xml version="1.0" encoding="UTF-8"?>
<svg id="_圖層_2" data-name="圖層 2" xmlns="http://www.w3.org/2000/svg" viewBox="0 0 140.54 12.11">
  <defs>
    <style>
      .cls-1 {
        fill: #211815;
      }
    </style>
  </defs>
  <g id="_圖層_1-2" data-name="圖層 1">
    <g>
      <path class="cls-1" d="M0,.18H6.76V.93H3.82V9.48h-.88V.93H0V.18Z"/>
      <path class="cls-1" d="M7.9,9.48V.18h.77V3.72c.31-.33,.63-.59,.96-.8,.33-.21,.73-.31,1.19-.31,.41,0,.8,.07,1.15,.21,.35,.14,.65,.39,.89,.74,.16,.24,.26,.49,.29,.74,.03,.25,.04,.52,.04,.79v4.38h-.77V5.11c0-.6-.13-1.05-.4-1.36-.27-.3-.71-.45-1.33-.45-.24,0-.46,.04-.66,.11-.2,.07-.38,.17-.54,.29-.16,.12-.29,.26-.41,.41-.11,.16-.2,.32-.26,.49-.08,.22-.12,.42-.14,.62-.02,.2-.03,.41-.03,.65v3.6h-.77Z"/>
      <path class="cls-1" d="M15.56,6.31c0,.36,.05,.7,.14,1.03,.09,.32,.23,.6,.42,.84,.18,.24,.42,.43,.7,.57,.28,.14,.61,.21,.98,.21,.51,0,.94-.13,1.3-.4,.36-.27,.6-.65,.72-1.14h.86c-.09,.32-.22,.61-.37,.88-.15,.27-.35,.51-.58,.71-.23,.2-.51,.36-.83,.47-.32,.11-.69,.17-1.11,.17-.53,0-.99-.09-1.38-.27-.39-.18-.71-.43-.96-.74-.25-.31-.44-.68-.56-1.11-.12-.43-.18-.88-.18-1.38s.07-.95,.21-1.38c.14-.43,.34-.81,.61-1.13,.26-.32,.58-.58,.96-.76,.38-.19,.81-.28,1.29-.28,.92,0,1.64,.32,2.17,.95,.52,.63,.78,1.55,.77,2.76h-5.19Zm4.36-.65c0-.33-.05-.63-.14-.92-.09-.29-.22-.54-.4-.75-.18-.21-.4-.38-.67-.5-.27-.12-.57-.19-.92-.19s-.65,.06-.91,.19c-.26,.13-.49,.3-.67,.52-.19,.22-.33,.46-.45,.75-.11,.28-.19,.59-.22,.9h4.36Z"/>
      <path class="cls-1" d="M26.82,5.25v4.22h-.88V.18h3.64c1.02,0,1.81,.19,2.35,.57,.54,.38,.81,1,.81,1.87,0,.59-.12,1.05-.35,1.39-.24,.34-.62,.64-1.16,.88,.27,.09,.49,.23,.65,.41,.16,.18,.27,.39,.35,.62,.08,.23,.13,.48,.15,.74,.02,.26,.04,.51,.05,.75,0,.35,.02,.65,.04,.88s.05,.42,.08,.57c.03,.15,.07,.26,.11,.34,.04,.08,.09,.14,.15,.19v.08h-.97c-.09-.14-.16-.36-.2-.63-.04-.28-.07-.56-.09-.86-.02-.3-.04-.59-.05-.88-.01-.28-.04-.52-.07-.7-.05-.25-.14-.45-.25-.6-.12-.15-.26-.26-.42-.34-.16-.08-.35-.13-.55-.15-.2-.03-.41-.04-.63-.04h-2.76Zm2.74-.75c.33,0,.63-.03,.91-.1,.28-.07,.52-.18,.73-.33,.21-.15,.37-.34,.49-.57,.12-.23,.18-.51,.18-.84,0-.34-.06-.63-.19-.85-.12-.22-.29-.4-.5-.53-.21-.13-.45-.22-.72-.27-.27-.05-.55-.08-.85-.08h-2.79v3.58h2.74Z"/>
      <path class="cls-1" d="M34.93,6.31c0,.36,.05,.7,.14,1.03,.09,.32,.23,.6,.42,.84,.19,.24,.42,.43,.7,.57,.28,.14,.61,.21,.98,.21,.51,0,.94-.13,1.3-.4s.6-.65,.72-1.14h.86c-.09,.32-.22,.61-.37,.88-.15,.27-.35,.51-.58,.71-.23,.2-.51,.36-.83,.47-.32,.11-.69,.17-1.11,.17-.53,0-.99-.09-1.38-.27-.39-.18-.71-.43-.96-.74-.25-.31-.44-.68-.56-1.11-.12-.43-.18-.88-.18-1.38s.07-.95,.21-1.38c.14-.43,.34-.81,.61-1.13,.26-.32,.58-.58,.96-.76,.38-.19,.81-.28,1.29-.28,.92,0,1.64,.32,2.17,.95,.52,.63,.78,1.55,.77,2.76h-5.19Zm4.36-.65c0-.33-.05-.63-.14-.92-.09-.29-.22-.54-.4-.75-.18-.21-.4-.38-.66-.5-.27-.12-.57-.19-.92-.19s-.65,.06-.91,.19c-.26,.13-.49,.3-.67,.52-.19,.22-.33,.46-.45,.75-.11,.28-.18,.59-.22,.9h4.36Z"/>
      <path class="cls-1" d="M40.96,3.43v-.65h.99V1.73c0-.53,.11-.96,.32-1.27,.22-.31,.58-.46,1.1-.46,.12,0,.23,0,.34,.01,.1,0,.21,.02,.31,.04V.76c-.17-.04-.33-.06-.46-.06-.2,0-.35,.04-.46,.11-.11,.07-.19,.17-.25,.29-.05,.12-.08,.26-.1,.41-.01,.15-.02,.3-.02,.46v.83h1.29v.65h-1.29v6.04h-.77V3.43h-.99Z"/>
      <path class="cls-1" d="M45.3,1.33V.18h.85V1.33h-.85Zm.04,8.15V2.79h.77v6.69h-.77Z"/>
      <path class="cls-1" d="M48.86,9.48h-.77V2.79h.77v.93c.31-.33,.63-.59,.96-.8,.33-.21,.73-.31,1.19-.31,.41,0,.8,.07,1.15,.21,.35,.14,.65,.39,.89,.74,.16,.24,.26,.49,.29,.74,.03,.25,.04,.52,.04,.79v4.38h-.77V5.11c0-.6-.13-1.05-.4-1.36-.27-.3-.71-.45-1.33-.45-.24,0-.46,.04-.66,.11-.2,.07-.38,.17-.54,.29-.16,.12-.29,.26-.41,.41-.11,.16-.2,.32-.26,.49-.08,.22-.12,.42-.14,.62-.02,.2-.03,.41-.03,.65v3.6Z"/>
      <path class="cls-1" d="M55.74,6.31c0,.36,.05,.7,.14,1.03,.09,.32,.23,.6,.42,.84,.19,.24,.42,.43,.7,.57,.28,.14,.61,.21,.98,.21,.51,0,.94-.13,1.3-.4s.6-.65,.72-1.14h.86c-.09,.32-.22,.61-.37,.88-.15,.27-.35,.51-.58,.71-.23,.2-.51,.36-.83,.47-.32,.11-.69,.17-1.11,.17-.53,0-.99-.09-1.38-.27-.39-.18-.71-.43-.95-.74-.25-.31-.44-.68-.56-1.11-.12-.43-.18-.88-.18-1.38s.07-.95,.21-1.38c.14-.43,.34-.81,.61-1.13,.26-.32,.58-.58,.96-.76,.38-.19,.81-.28,1.29-.28,.92,0,1.64,.32,2.17,.95,.52,.63,.78,1.55,.77,2.76h-5.19Zm4.36-.65c0-.33-.05-.63-.14-.92-.09-.29-.22-.54-.4-.75-.18-.21-.4-.38-.66-.5-.27-.12-.57-.19-.92-.19s-.65,.06-.91,.19c-.26,.13-.49,.3-.67,.52-.18,.22-.33,.46-.45,.75-.11,.28-.19,.59-.22,.9h4.36Z"/>
      <path class="cls-1" d="M67.6,.18h.77V9.48h-.77v-1.17h-.03c-.11,.22-.26,.42-.43,.59-.18,.17-.37,.31-.58,.42-.21,.11-.43,.2-.65,.26-.22,.06-.44,.09-.66,.09-.54,0-1-.09-1.38-.27-.38-.18-.69-.43-.94-.74-.25-.31-.42-.69-.54-1.12-.11-.43-.17-.89-.17-1.38,0-.46,.06-.91,.18-1.34,.12-.43,.3-.81,.55-1.13,.25-.32,.56-.58,.93-.77,.37-.19,.81-.29,1.32-.29,.47,0,.93,.11,1.36,.32,.43,.21,.78,.52,1.03,.94V.18Zm0,5.93c0-.38-.05-.74-.16-1.08-.1-.34-.25-.64-.45-.89-.19-.25-.43-.46-.71-.61-.28-.15-.6-.23-.95-.23-.4,0-.75,.08-1.05,.24-.29,.16-.53,.38-.72,.65-.19,.28-.33,.6-.41,.96-.09,.37-.12,.76-.1,1.18,0,.42,.06,.79,.17,1.12,.12,.32,.28,.6,.48,.82,.21,.22,.45,.39,.72,.51,.28,.12,.58,.17,.9,.17,.36,0,.68-.07,.97-.22,.28-.15,.52-.35,.71-.6,.19-.25,.33-.56,.43-.9,.1-.35,.15-.73,.15-1.13Z"/>
      <path class="cls-1" d="M74.03,9.48V.18h.77V9.48h-.77Z"/>
      <path class="cls-1" d="M76.86,1.33V.18h.85V1.33h-.85Zm.04,8.15V2.79h.77v6.69h-.77Z"/>
      <path class="cls-1" d="M78.98,3.43v-.65h.99V1.73c0-.53,.11-.96,.32-1.27,.22-.31,.58-.46,1.1-.46,.12,0,.23,0,.34,.01,.1,0,.21,.02,.31,.04V.76c-.17-.04-.33-.06-.46-.06-.2,0-.35,.04-.46,.11-.11,.07-.19,.17-.25,.29-.05,.12-.08,.26-.1,.41-.01,.15-.02,.3-.02,.46v.83h1.29v.65h-1.29v6.04h-.77V3.43h-.99Z"/>
      <path class="cls-1" d="M83.71,6.31c0,.36,.05,.7,.14,1.03,.09,.32,.23,.6,.42,.84,.19,.24,.42,.43,.7,.57,.28,.14,.61,.21,.98,.21,.51,0,.94-.13,1.3-.4,.36-.27,.6-.65,.72-1.14h.86c-.09,.32-.22,.61-.37,.88-.15,.27-.35,.51-.58,.71-.23,.2-.51,.36-.83,.47-.32,.11-.69,.17-1.11,.17-.53,0-.99-.09-1.38-.27-.39-.18-.71-.43-.96-.74-.25-.31-.44-.68-.56-1.11-.12-.43-.18-.88-.18-1.38s.07-.95,.21-1.38c.14-.43,.34-.81,.61-1.13,.26-.32,.58-.58,.96-.76,.38-.19,.81-.28,1.29-.28,.92,0,1.64,.32,2.17,.95,.52,.63,.78,1.55,.77,2.76h-5.19Zm4.36-.65c0-.33-.05-.63-.14-.92-.09-.29-.22-.54-.4-.75-.18-.21-.4-.38-.67-.5-.27-.12-.57-.19-.92-.19s-.65,.06-.91,.19c-.26,.13-.49,.3-.67,.52-.19,.22-.33,.46-.45,.75-.11,.28-.19,.59-.22,.9h4.36Z"/>
      <path class="cls-1" d="M96.66,9.66c-.43,0-.83-.09-1.21-.23-.37-.15-.7-.37-.98-.66-.28-.29-.5-.66-.67-1.1-.16-.44-.25-.95-.25-1.54,0-.49,.06-.95,.19-1.38,.13-.43,.32-.8,.58-1.12,.26-.32,.58-.57,.97-.75,.39-.19,.84-.28,1.36-.28s.98,.09,1.37,.28c.39,.19,.71,.43,.97,.75,.26,.31,.45,.69,.57,1.12,.12,.43,.19,.89,.19,1.38,0,.53-.07,1.02-.22,1.45-.15,.43-.36,.8-.63,1.11-.27,.31-.6,.55-.98,.72-.38,.17-.81,.25-1.27,.25Zm2.27-3.52c0-.4-.04-.77-.13-1.11-.09-.34-.22-.64-.4-.9-.18-.25-.41-.45-.7-.6-.28-.15-.63-.22-1.05-.22s-.75,.08-1.04,.24c-.29,.16-.52,.37-.7,.63-.18,.26-.31,.56-.4,.9-.09,.34-.13,.69-.13,1.05,0,.41,.05,.79,.15,1.14,.1,.35,.24,.65,.43,.9,.19,.25,.43,.44,.71,.58,.28,.14,.61,.21,.98,.21,.4,0,.75-.08,1.04-.24,.29-.16,.52-.37,.7-.64,.18-.27,.31-.57,.4-.9,.09-.34,.13-.68,.13-1.05Z"/>
      <path class="cls-1" d="M100.51,3.43v-.65h.99V1.73c0-.53,.11-.96,.32-1.27,.22-.31,.58-.46,1.1-.46,.12,0,.23,0,.34,.01,.1,0,.21,.02,.31,.04V.76c-.17-.04-.33-.06-.46-.06-.2,0-.35,.04-.46,.11-.11,.07-.19,.17-.25,.29-.05,.12-.08,.26-.1,.41-.01,.15-.02,.3-.02,.46v.83h1.29v.65h-1.29v6.04h-.77V3.43h-.99Z"/>
      <path class="cls-1" d="M108.36,9.48V.18h.77V3.72c.31-.33,.63-.59,.96-.8,.33-.21,.73-.31,1.19-.31,.41,0,.8,.07,1.15,.21,.35,.14,.65,.39,.89,.74,.16,.24,.26,.49,.29,.74,.03,.25,.04,.52,.04,.79v4.38h-.77V5.11c0-.6-.13-1.05-.4-1.36-.27-.3-.71-.45-1.33-.45-.24,0-.46,.04-.66,.11-.2,.07-.38,.17-.54,.29-.16,.12-.29,.26-.41,.41-.11,.16-.2,.32-.26,.49-.08,.22-.12,.42-.14,.62-.02,.2-.03,.41-.03,.65v3.6h-.77Z"/>
      <path class="cls-1" d="M120.07,2.79h.77v6.69h-.77v-.93c-.1,.12-.22,.25-.35,.37-.13,.13-.28,.25-.45,.35-.17,.11-.36,.2-.59,.27-.22,.07-.48,.11-.77,.11-.45,0-.82-.06-1.12-.19-.3-.12-.54-.3-.73-.52-.19-.22-.32-.48-.4-.78-.08-.3-.12-.62-.12-.97V2.79h.77V7.18c0,.58,.13,1.02,.4,1.32,.27,.31,.71,.46,1.32,.46,.32,0,.6-.06,.86-.19,.25-.12,.47-.3,.64-.52,.17-.22,.31-.49,.4-.8,.09-.31,.14-.65,.14-1.02V2.79Z"/>
      <path class="cls-1" d="M122.79,1.33V.18h.85V1.33h-.85Zm.04,8.15V2.79h.77v6.69h-.77Z"/>
      <path class="cls-1" d="M125.53,11.28c.1,.02,.21,.03,.32,.05,.11,.02,.22,.03,.33,.03,.21,0,.39-.07,.53-.21,.14-.14,.25-.3,.34-.5,.09-.19,.17-.4,.23-.61,.06-.21,.13-.39,.21-.54l-2.59-6.73h.86l2.14,5.74,2.14-5.74h.84l-2.49,6.6c-.16,.42-.3,.8-.45,1.14-.14,.34-.29,.62-.45,.86-.16,.24-.34,.42-.53,.54-.19,.12-.42,.19-.69,.19-.14,0-.27,0-.39-.03-.12-.02-.24-.04-.34-.06v-.74Z"/>
      <path class="cls-1" d="M134.69,9.66c-.43,0-.83-.09-1.21-.23-.37-.15-.7-.37-.98-.66-.28-.29-.5-.66-.67-1.1-.16-.44-.25-.95-.25-1.54,0-.49,.06-.95,.19-1.38,.13-.43,.32-.8,.58-1.12,.26-.32,.58-.57,.97-.75,.39-.19,.84-.28,1.36-.28s.98,.09,1.37,.28c.39,.19,.71,.43,.97,.75,.26,.31,.45,.69,.57,1.12,.12,.43,.19,.89,.19,1.38,0,.53-.07,1.02-.22,1.45-.15,.43-.35,.8-.63,1.11-.27,.31-.6,.55-.98,.72-.38,.17-.81,.25-1.27,.25Zm2.27-3.52c0-.4-.04-.77-.13-1.11-.09-.34-.22-.64-.4-.9-.18-.25-.41-.45-.7-.6-.28-.15-.63-.22-1.05-.22s-.75,.08-1.04,.24c-.29,.16-.52,.37-.7,.63-.18,.26-.31,.56-.4,.9-.09,.34-.13,.69-.13,1.05,0,.41,.05,.79,.15,1.14,.1,.35,.24,.65,.43,.9,.19,.25,.43,.44,.71,.58,.28,.14,.61,.21,.98,.21,.4,0,.75-.08,1.04-.24,.29-.16,.52-.37,.7-.64,.18-.27,.31-.57,.4-.9,.09-.34,.13-.68,.13-1.05Z"/>
      <path class="cls-1" d="M139.6,9.48v-1.14h.94v1.14h-.94Z"/>
    </g>
  </g>
</svg>