<?xml version="1.0" encoding="UTF-8"?>
<svg id="_圖層_2" data-name="圖層 2" xmlns="http://www.w3.org/2000/svg" viewBox="0 0 90.44 8.82">
  <defs>
    <style>
      .cls-1 {
        fill: #94714d;
      }
    </style>
  </defs>
  <g id="_圖層_1-2" data-name="圖層 1">
    <g>
      <path class="cls-1" d="M1.21,8.53L4.01,.71h-1.3l.05-.16h3.53l-.05,.16h-1.19l-1.34,3.74h3.68l1.35-3.74h-1.31l.05-.16h3.52l-.05,.16h-1.18l-2.81,7.82h1.31l-.05,.16h-3.54l.05-.16h1.19l1.42-3.92H3.66l-1.42,3.92h1.31l-.05,.16H0l.05-.16H1.21Z"/>
      <path class="cls-1" d="M12.31,3.78l-1.31,3.77c-.06,.16-.11,.3-.14,.43-.03,.13-.05,.22-.05,.28,0,.11,.03,.2,.09,.29,.06,.08,.15,.13,.29,.13,.21,0,.43-.08,.67-.23,.24-.16,.47-.36,.7-.6,.23-.24,.44-.52,.63-.82,.19-.3,.34-.6,.45-.9l.81-2.34h.8l-1.35,3.87c-.04,.11-.08,.23-.11,.35-.04,.12-.06,.23-.06,.34,0,.09,.03,.17,.08,.23,.05,.06,.13,.1,.24,.1,.13,0,.25-.04,.37-.13,.12-.08,.22-.18,.32-.29,.1-.11,.18-.22,.25-.34,.07-.11,.12-.21,.15-.27l.14,.06c-.03,.06-.08,.15-.14,.28-.06,.13-.15,.25-.27,.38-.11,.13-.26,.23-.42,.33-.17,.09-.37,.14-.59,.14-.25,0-.45-.05-.6-.15-.15-.1-.22-.28-.22-.52,0-.13,.02-.25,.05-.37,.03-.12,.08-.25,.14-.41l-.02-.02c-.11,.14-.23,.29-.38,.46-.15,.17-.31,.33-.48,.48-.17,.15-.35,.27-.55,.38-.19,.1-.39,.15-.6,.15-.33,0-.59-.08-.78-.23-.19-.15-.29-.37-.29-.66,0-.11,.03-.25,.08-.41,.05-.16,.1-.3,.14-.42l1.12-3.17h-1.02l.05-.16h1.84Z"/>
      <path class="cls-1" d="M16.29,3.94l.05-.16h1.82l-1.35,3.87c-.04,.11-.08,.23-.11,.35-.04,.12-.06,.23-.06,.34,0,.09,.03,.17,.08,.23,.05,.06,.13,.1,.24,.1,.12,0,.24-.04,.36-.13,.12-.08,.23-.18,.33-.29,.1-.11,.18-.22,.25-.34,.07-.11,.12-.21,.15-.27l.14,.06c-.03,.06-.08,.15-.14,.28-.06,.13-.15,.25-.27,.38-.11,.13-.26,.23-.42,.33-.17,.09-.37,.14-.59,.14-.25,0-.45-.05-.6-.15-.15-.1-.22-.28-.22-.52,0-.13,.02-.27,.07-.43,.05-.16,.09-.3,.14-.43l1.18-3.35h-1.02Zm1.88-3.24c.1-.1,.23-.15,.38-.15s.28,.05,.38,.15c.1,.1,.15,.23,.15,.38s-.05,.28-.15,.38c-.1,.1-.23,.15-.38,.15s-.28-.05-.38-.15c-.1-.1-.15-.23-.15-.38s.05-.28,.15-.38Z"/>
      <path class="cls-1" d="M23.49,5l-.81-4.29h-1.25l.05-.16h3.52l-.05,.16h-1.27l.74,3.92,3.49-3.92h-1.12l.05-.16h2.24l-.05,.16h-.89l-3.64,4.1-1.34,3.71h1.31l-.05,.16h-3.53l.05-.16h1.28l1.26-3.53Z"/>
      <path class="cls-1" d="M26.46,5.61c.19-.4,.43-.74,.73-1.03,.29-.29,.62-.52,.98-.69,.36-.17,.7-.25,1.03-.25,.3,0,.56,.06,.78,.18,.22,.12,.4,.28,.55,.47,.14,.19,.25,.4,.32,.63,.07,.23,.1,.45,.1,.66,0,.44-.1,.86-.29,1.25-.19,.39-.43,.74-.72,1.03-.29,.3-.61,.53-.97,.7-.35,.17-.69,.26-1.01,.26-.27,0-.52-.05-.74-.16-.22-.11-.4-.25-.56-.42-.16-.18-.28-.38-.36-.61-.08-.23-.13-.48-.13-.74,0-.46,.1-.89,.29-1.29Zm.75,2.79c.19,.19,.42,.28,.71,.28,.24,0,.46-.07,.66-.21,.21-.14,.39-.32,.56-.54,.17-.22,.32-.47,.45-.75,.13-.27,.24-.55,.33-.82,.09-.27,.15-.53,.2-.78,.05-.24,.07-.44,.07-.59,0-.37-.08-.66-.23-.87-.16-.21-.43-.32-.82-.32-.22,0-.43,.06-.63,.19-.2,.13-.38,.3-.54,.51-.16,.21-.31,.45-.44,.71-.13,.27-.24,.54-.33,.82-.09,.28-.15,.55-.2,.81-.05,.26-.07,.49-.07,.69,0,.39,.09,.68,.28,.86Z"/>
      <path class="cls-1" d="M33.58,8.53L39.32,.37h.26l.21,8.16h1.23l-.05,.16h-3.52l.05-.16h1.25l-.07-3.2h-2.63l-2.24,3.2h1.15l-.05,.16h-2.36l.05-.16h.97Zm5.03-6.84l-2.45,3.48h2.51l-.05-3.48h-.02Z"/>
      <path class="cls-1" d="M43.18,4.56c.06-.21,.12-.41,.18-.62h-.99l.05-.16h1.76c-.04,.16-.09,.36-.17,.61-.07,.24-.15,.48-.23,.71l.02,.02c.08-.11,.17-.25,.29-.41,.11-.16,.24-.31,.39-.46,.14-.15,.3-.27,.48-.38,.18-.1,.36-.15,.56-.15,.28,0,.5,.08,.65,.24,.15,.16,.22,.33,.21,.51,0,.12-.02,.22-.06,.3-.04,.08-.1,.14-.16,.18-.07,.04-.13,.07-.2,.09-.07,.02-.13,.02-.19,.02-.11,0-.19-.03-.26-.08-.07-.05-.1-.13-.1-.24,0-.08,.02-.15,.05-.19,.03-.04,.07-.08,.11-.12s.07-.08,.11-.13c.03-.05,.05-.11,.05-.18s-.03-.14-.09-.18c-.06-.05-.14-.07-.23-.07-.14,0-.31,.07-.5,.22-.19,.15-.38,.34-.57,.57-.19,.23-.36,.5-.53,.79-.17,.3-.3,.59-.41,.89l-.82,2.33h-.8l1.23-3.52c.07-.2,.13-.4,.19-.61Z"/>
      <path class="cls-1" d="M49.84,8.01c-.13,.15-.27,.28-.43,.41-.16,.12-.35,.22-.57,.3-.21,.08-.45,.11-.72,.11-.28,0-.53-.05-.75-.14-.22-.09-.41-.22-.55-.37-.15-.16-.26-.34-.34-.54-.08-.21-.12-.43-.12-.66,0-.39,.09-.79,.27-1.19,.18-.41,.43-.78,.73-1.12,.3-.34,.65-.62,1.05-.83,.39-.22,.8-.33,1.22-.33,.13,0,.26,.02,.38,.05,.13,.03,.24,.08,.34,.15,.1,.07,.18,.16,.25,.28,.07,.12,.1,.27,.1,.44,0,.25-.06,.42-.19,.49-.13,.08-.26,.11-.39,.11s-.23-.03-.29-.09c-.05-.06-.08-.12-.08-.2,0-.09,.02-.17,.05-.22,.03-.06,.07-.11,.11-.15,.04-.05,.08-.1,.11-.15,.03-.06,.05-.13,.05-.22,0-.12-.04-.21-.13-.25-.09-.05-.21-.07-.36-.07-.24,0-.47,.06-.69,.18-.21,.12-.41,.28-.59,.49-.18,.2-.34,.43-.47,.69-.14,.26-.26,.53-.35,.8-.1,.27-.17,.54-.22,.81-.05,.27-.07,.51-.07,.73,0,.33,.09,.61,.28,.83,.19,.23,.47,.34,.86,.34,.21,0,.41-.04,.59-.12,.18-.08,.34-.18,.49-.3,.14-.12,.27-.25,.38-.39,.11-.14,.19-.27,.26-.38l.16,.09c-.09,.14-.2,.29-.33,.44Z"/>
      <path class="cls-1" d="M52.67,.16l.05-.16h1.81l-1.91,5.18h.02c.11-.15,.25-.31,.4-.49,.15-.17,.32-.33,.5-.47,.18-.14,.38-.26,.58-.36,.2-.09,.41-.14,.61-.14,.32,0,.57,.09,.76,.26,.19,.17,.28,.38,.28,.63,0,.13-.02,.26-.06,.38-.04,.13-.09,.28-.15,.45l-.74,2.11c-.05,.13-.09,.26-.13,.38-.04,.13-.06,.25-.06,.37,0,.09,.02,.18,.06,.25,.04,.08,.12,.11,.24,.11,.14,0,.26-.04,.38-.11,.11-.08,.22-.17,.31-.27,.1-.11,.18-.22,.25-.34,.07-.12,.12-.22,.16-.3l.13,.06c-.04,.08-.09,.18-.16,.3-.07,.13-.16,.25-.27,.37-.11,.12-.25,.23-.41,.31-.16,.09-.35,.13-.57,.13-.24,0-.45-.05-.62-.16-.17-.11-.25-.28-.25-.53,0-.1,.01-.2,.04-.31,.03-.11,.06-.22,.1-.34l.96-2.73c.06-.18,.09-.33,.09-.46,0-.1-.03-.19-.1-.29-.06-.09-.18-.14-.35-.14s-.36,.06-.58,.19c-.22,.13-.44,.3-.66,.51-.22,.22-.43,.47-.62,.77-.19,.29-.35,.61-.47,.95l-.86,2.39h-.79L53.71,.16h-1.04Z"/>
      <path class="cls-1" d="M57.21,3.94l.05-.16h1.82l-1.35,3.87c-.04,.11-.08,.23-.11,.35-.04,.12-.06,.23-.06,.34,0,.09,.03,.17,.08,.23,.05,.06,.13,.1,.24,.1,.12,0,.24-.04,.36-.13,.12-.08,.23-.18,.33-.29,.1-.11,.18-.22,.25-.34,.07-.11,.12-.21,.15-.27l.14,.06c-.03,.06-.08,.15-.14,.28-.06,.13-.15,.25-.27,.38-.11,.13-.26,.23-.42,.33-.17,.09-.37,.14-.59,.14-.25,0-.45-.05-.6-.15-.15-.1-.22-.28-.22-.52,0-.13,.02-.27,.07-.43,.05-.16,.09-.3,.14-.43l1.18-3.35h-1.02Zm1.88-3.24c.1-.1,.23-.15,.38-.15s.28,.05,.38,.15c.1,.1,.15,.23,.15,.38s-.05,.28-.15,.38c-.1,.1-.23,.15-.38,.15s-.28-.05-.38-.15c-.1-.1-.15-.23-.15-.38s.05-.28,.15-.38Z"/>
      <path class="cls-1" d="M62.55,2.66l-.41,1.12h1.25l-.05,.16h-1.25l-1.3,3.63c-.04,.11-.08,.23-.11,.35-.04,.12-.06,.24-.06,.37,0,.11,.03,.21,.09,.27,.06,.07,.15,.1,.28,.1,.14,0,.27-.04,.39-.13,.12-.08,.23-.18,.33-.29,.1-.11,.18-.22,.25-.34,.07-.11,.12-.21,.15-.27l.14,.06c-.03,.06-.08,.15-.15,.28-.07,.13-.16,.25-.27,.38-.11,.13-.26,.23-.43,.33s-.38,.14-.61,.14c-.29,0-.51-.07-.65-.21-.15-.14-.22-.31-.22-.51,0-.15,.03-.33,.09-.52,.06-.19,.12-.37,.18-.53l1.12-3.11h-1.03l.05-.16h1.03l.41-1.12h.8Z"/>
      <path class="cls-1" d="M66.63,7.86c-.09,.14-.22,.28-.38,.42-.16,.14-.36,.27-.59,.38-.23,.11-.51,.17-.84,.17s-.6-.05-.83-.16c-.23-.11-.41-.24-.55-.41-.14-.17-.24-.35-.31-.55-.06-.2-.1-.4-.1-.59,0-.38,.09-.77,.28-1.18,.19-.41,.43-.78,.73-1.12,.3-.34,.64-.62,1.02-.84,.38-.22,.77-.33,1.17-.33,.15,0,.31,.02,.46,.05,.15,.03,.29,.09,.41,.15,.12,.07,.22,.16,.3,.26,.08,.11,.11,.24,.11,.39,0,.21-.06,.39-.17,.54-.11,.16-.25,.29-.43,.4-.18,.11-.37,.2-.58,.28-.21,.08-.41,.14-.61,.18-.2,.04-.38,.07-.54,.09-.16,.02-.28,.03-.36,.03-.13,0-.26,0-.38-.01-.12,0-.23-.02-.32-.03-.08,.24-.15,.49-.21,.73s-.09,.49-.09,.76c0,.41,.11,.72,.32,.92,.21,.2,.48,.3,.81,.3,.24,0,.46-.05,.65-.14,.19-.1,.35-.21,.49-.34,.14-.13,.26-.26,.35-.39s.17-.24,.23-.31l.14,.08c-.05,.05-.11,.15-.21,.29Zm.05-3.9c-.09-.11-.24-.16-.46-.16-.24,0-.46,.07-.68,.21s-.41,.31-.59,.51c-.18,.2-.33,.42-.46,.65-.13,.23-.23,.45-.3,.65,.18,.03,.37,.05,.58,.05,.27,0,.53-.04,.78-.13,.24-.08,.46-.19,.65-.33,.19-.14,.33-.3,.45-.48,.11-.18,.17-.37,.17-.57,0-.15-.05-.28-.14-.39Z"/>
      <path class="cls-1" d="M71.38,8.01c-.13,.15-.27,.28-.43,.41-.16,.12-.35,.22-.57,.3-.21,.08-.45,.11-.72,.11-.28,0-.53-.05-.75-.14-.22-.09-.41-.22-.55-.37-.15-.16-.26-.34-.34-.54-.08-.21-.12-.43-.12-.66,0-.39,.09-.79,.27-1.19,.18-.41,.43-.78,.73-1.12,.3-.34,.65-.62,1.05-.83,.39-.22,.8-.33,1.22-.33,.13,0,.26,.02,.38,.05,.13,.03,.24,.08,.34,.15,.1,.07,.18,.16,.25,.28,.06,.12,.1,.27,.1,.44,0,.25-.06,.42-.19,.49-.13,.08-.26,.11-.39,.11s-.23-.03-.29-.09c-.05-.06-.08-.12-.08-.2,0-.09,.02-.17,.05-.22,.03-.06,.07-.11,.11-.15,.04-.05,.08-.1,.11-.15,.03-.06,.05-.13,.05-.22,0-.12-.04-.21-.13-.25-.09-.05-.21-.07-.36-.07-.24,0-.47,.06-.69,.18-.21,.12-.41,.28-.59,.49-.18,.2-.34,.43-.47,.69-.14,.26-.26,.53-.35,.8s-.17,.54-.22,.81c-.05,.27-.07,.51-.07,.73,0,.33,.09,.61,.28,.83,.19,.23,.47,.34,.86,.34,.21,0,.41-.04,.59-.12,.18-.08,.34-.18,.49-.3,.14-.12,.27-.25,.38-.39,.11-.14,.19-.27,.26-.38l.16,.09c-.09,.14-.2,.29-.33,.44Z"/>
      <path class="cls-1" d="M75.11,2.66l-.41,1.12h1.25l-.05,.16h-1.25l-1.3,3.63c-.04,.11-.08,.23-.11,.35-.04,.12-.06,.24-.06,.37,0,.11,.03,.21,.09,.27,.06,.07,.15,.1,.28,.1,.14,0,.27-.04,.39-.13,.12-.08,.23-.18,.33-.29,.1-.11,.18-.22,.25-.34,.07-.11,.12-.21,.15-.27l.14,.06c-.03,.06-.08,.15-.15,.28-.07,.13-.16,.25-.27,.38-.11,.13-.26,.23-.43,.33s-.38,.14-.61,.14c-.29,0-.51-.07-.65-.21-.15-.14-.22-.31-.22-.51,0-.15,.03-.33,.09-.52,.06-.19,.12-.37,.18-.53l1.12-3.11h-1.03l.05-.16h1.03l.41-1.12h.8Z"/>
      <path class="cls-1" d="M77.94,3.78l-1.31,3.77c-.06,.16-.11,.3-.14,.43-.03,.13-.05,.22-.05,.28,0,.11,.03,.2,.09,.29,.06,.08,.15,.13,.29,.13,.21,0,.43-.08,.67-.23,.24-.16,.47-.36,.7-.6,.23-.24,.44-.52,.63-.82,.19-.3,.34-.6,.45-.9l.81-2.34h.8l-1.35,3.87c-.04,.11-.08,.23-.11,.35-.04,.12-.06,.23-.06,.34,0,.09,.03,.17,.08,.23,.05,.06,.13,.1,.24,.1,.13,0,.25-.04,.37-.13,.12-.08,.22-.18,.32-.29,.1-.11,.18-.22,.25-.34,.07-.11,.12-.21,.15-.27l.14,.06c-.03,.06-.08,.15-.14,.28-.06,.13-.15,.25-.27,.38-.11,.13-.26,.23-.42,.33-.17,.09-.37,.14-.59,.14-.25,0-.45-.05-.6-.15-.15-.1-.22-.28-.22-.52,0-.13,.02-.25,.05-.37,.03-.12,.08-.25,.14-.41l-.02-.02c-.11,.14-.23,.29-.38,.46-.15,.17-.31,.33-.48,.48-.17,.15-.35,.27-.55,.38-.19,.1-.39,.15-.6,.15-.33,0-.59-.08-.78-.23-.19-.15-.29-.37-.29-.66,0-.11,.03-.25,.08-.41,.05-.16,.1-.3,.14-.42l1.12-3.17h-1.02l.05-.16h1.84Z"/>
      <path class="cls-1" d="M82.88,4.56c.06-.21,.12-.41,.18-.62h-.99l.05-.16h1.76c-.04,.16-.09,.36-.17,.61-.07,.24-.15,.48-.23,.71l.02,.02c.08-.11,.17-.25,.29-.41,.11-.16,.24-.31,.39-.46,.14-.15,.3-.27,.48-.38,.18-.1,.36-.15,.56-.15,.28,0,.5,.08,.65,.24,.15,.16,.22,.33,.21,.51,0,.12-.02,.22-.06,.3-.04,.08-.1,.14-.16,.18-.06,.04-.13,.07-.2,.09-.07,.02-.13,.02-.19,.02-.11,0-.19-.03-.26-.08-.07-.05-.1-.13-.1-.24,0-.08,.02-.15,.05-.19,.03-.04,.07-.08,.11-.12s.07-.08,.11-.13c.03-.05,.05-.11,.05-.18s-.03-.14-.09-.18c-.06-.05-.14-.07-.23-.07-.14,0-.31,.07-.5,.22-.19,.15-.38,.34-.57,.57-.19,.23-.36,.5-.53,.79-.17,.3-.3,.59-.41,.89l-.82,2.33h-.8l1.23-3.52c.07-.2,.13-.4,.19-.61Z"/>
      <path class="cls-1" d="M89.54,7.86c-.09,.14-.22,.28-.38,.42-.16,.14-.36,.27-.59,.38-.23,.11-.51,.17-.84,.17s-.6-.05-.83-.16c-.23-.11-.41-.24-.55-.41-.14-.17-.24-.35-.31-.55-.06-.2-.1-.4-.1-.59,0-.38,.09-.77,.28-1.18,.19-.41,.43-.78,.73-1.12,.3-.34,.64-.62,1.02-.84,.38-.22,.77-.33,1.17-.33,.15,0,.31,.02,.46,.05,.15,.03,.29,.09,.41,.15,.12,.07,.22,.16,.3,.26,.08,.11,.11,.24,.11,.39,0,.21-.06,.39-.17,.54-.11,.16-.25,.29-.43,.4-.18,.11-.37,.2-.58,.28-.21,.08-.41,.14-.61,.18-.2,.04-.38,.07-.54,.09-.16,.02-.28,.03-.36,.03-.13,0-.26,0-.38-.01-.12,0-.23-.02-.32-.03-.08,.24-.15,.49-.21,.73-.06,.24-.09,.49-.09,.76,0,.41,.11,.72,.32,.92,.21,.2,.48,.3,.81,.3,.24,0,.46-.05,.65-.14,.19-.1,.35-.21,.49-.34,.14-.13,.26-.26,.35-.39,.1-.13,.17-.24,.23-.31l.14,.08c-.05,.05-.11,.15-.21,.29Zm.05-3.9c-.09-.11-.24-.16-.46-.16-.24,0-.46,.07-.68,.21s-.41,.31-.59,.51c-.18,.2-.33,.42-.46,.65-.13,.23-.23,.45-.3,.65,.18,.03,.37,.05,.58,.05,.27,0,.53-.04,.78-.13,.24-.08,.46-.19,.65-.33,.19-.14,.33-.3,.45-.48,.11-.18,.17-.37,.17-.57,0-.15-.05-.28-.14-.39Z"/>
    </g>
  </g>
</svg>