<?xml version="1.0" encoding="UTF-8"?>
<svg id="_圖層_2" data-name="圖層 2" xmlns="http://www.w3.org/2000/svg" viewBox="0 0 101.02 19.53">
  <defs>
    <style>
      .cls-1 {
        fill: #fff;
      }
    </style>
  </defs>
  <g id="_圖層_1-2" data-name="圖層 1">
    <g>
      <path class="cls-1" d="M8.83,19.49v-4.18c-.97,.82-2.16,1.56-3.55,2.24-1.31,.62-2.66,1.11-4.06,1.48-.27-.54-.68-1.08-1.23-1.63,1.32-.25,2.64-.63,3.95-1.12,1.34-.52,2.47-1.1,3.38-1.73H.42v-1.56H8.83v-.82c-.25,.11-.45,.19-.59,.23-.28-.46-.66-.89-1.14-1.29,1.42-.45,2.44-1.05,3.04-1.8h-1.78v-1.35h2.37c.04-.28,.06-.54,.06-.78v-.36h-1.69v-1.35h7.71v4.14c0,.39,.02,.62,.06,.68,.06,.06,.15,.08,.3,.08h.44c.15,0,.27-.02,.36-.06,.08-.07,.14-.21,.18-.41,.03-.2,.07-.73,.09-1.57,.35,.31,.8,.54,1.33,.7-.06,1.04-.14,1.71-.25,1.99-.13,.35-.34,.6-.63,.74-.24,.14-.58,.21-1.04,.21h-.99c-.55,0-.97-.15-1.25-.44-.17-.16-.29-.36-.36-.61-.07-.27-.11-.7-.11-1.29v-2.79h-2.51v.4c0,.32,0,.57-.02,.74h1.88v1.35h-2.2c-.35,.87-1.01,1.61-1.99,2.22h.61v1.46h8.52v1.56h-7.1c.93,.62,2.08,1.18,3.44,1.67,1.31,.46,2.66,.82,4.04,1.06-.51,.48-.92,1.04-1.25,1.69-1.38-.34-2.74-.82-4.08-1.46-1.41-.65-2.6-1.38-3.57-2.2v4.18h-1.9ZM1.65,5.3c-.44-.39-.97-.76-1.61-1.1C1.38,3.12,2.4,1.72,3.11,0l1.84,.49c-.14,.32-.34,.72-.59,1.18h5.16v1.35c.85-.92,1.49-1.92,1.92-3.02l1.9,.46c-.11,.27-.31,.67-.59,1.21h6.51v1.58h-4.12c.45,.56,.77,1.06,.97,1.5l-1.65,.53c-.28-.62-.71-1.3-1.29-2.03h-1.48c-.51,.66-1.08,1.28-1.71,1.84-.44-.32-1.01-.64-1.73-.95,.39-.28,.74-.58,1.04-.89h-3.44c.32,.58,.57,1.08,.74,1.52l-1.59,.49c-.18-.59-.5-1.26-.95-2.01h-.66c-.55,.79-1.13,1.47-1.73,2.05ZM.53,11.67l-.23-1.61c.46-.04,1.26-.13,2.39-.27,.41-.04,.72-.08,.93-.11v-2.58H.78v-1.4h7.33v1.4h-2.7v2.35l2.66-.36,.06,1.52c-1.82,.24-4.35,.59-7.61,1.06Z"/>
      <path class="cls-1" d="M23.08,18.51v-1.99h7.71V.42h2.11V6.7h7.63v1.97h-7.63v7.86h9.09v1.99H23.08Z"/>
      <path class="cls-1" d="M47.4,18.92l-1.69-.95c.8-.94,1.46-2.23,1.97-3.85l1.69,.7c-.62,1.85-1.28,3.21-1.97,4.1Zm9.21-2.35c-.34-.38-.82-.81-1.46-1.29-.63-.46-1.26-.87-1.88-1.2l1.16-.97c-1.76,.04-4.15,.08-7.16,.11h-.89l-.08-1.67c1.31,.01,3.78,0,7.4-.02h.38v-1.46h-6.47V4.04h6.47v-1.18h-7.8V1.29h7.8V.15h2.03V1.29h8.05v1.56h-8.05v1.18h6.59v6.02h-2.73c.83,.41,1.64,.87,2.43,1.4,.8,.54,1.44,1.03,1.9,1.48l-1.33,1.08c-.16-.15-.43-.4-.82-.74-.17-.14-.3-.25-.38-.32-1.42,.04-3.57,.09-6.45,.13-.3,.01-.51,.02-.65,.02,1.46,.77,2.56,1.54,3.28,2.3l-1.33,1.16Zm-7.14-10.12h4.61v-1.18h-4.61v1.18Zm0,2.39h4.61v-1.2h-4.61v1.2Zm4.04,10.4c-1.31,0-2.19-.16-2.63-.46-.44-.31-.67-.91-.67-1.8v-2.73h1.94v2.71c0,.28,.09,.46,.27,.54,.18,.08,.59,.12,1.23,.12h4.16c.51,0,.83-.12,.98-.35,.15-.23,.25-.78,.31-1.64,.41,.28,.98,.5,1.71,.66-.13,1.18-.38,1.97-.76,2.37-.38,.39-1.07,.59-2.07,.59h-4.48Zm2.6-12.79h4.65v-1.18h-4.65v1.18Zm0,2.39h4.65v-1.2h-4.65v1.2Zm0,2.68l3.4-.04c-.51-.28-.98-.51-1.42-.7l.97-.72h-2.96v1.46Zm6.59,7.31c-.35-1.15-1.11-2.51-2.26-4.08l1.69-.57c.51,.63,.98,1.32,1.42,2.05,.47,.76,.78,1.42,.95,1.96l-1.8,.63Z"/>
      <path class="cls-1" d="M73.53,19.53c-.31-.63-.68-1.2-1.12-1.69,2.11-.54,3.97-1.37,5.56-2.49-1.3-1.25-2.38-2.77-3.25-4.54-1.11,3.48-2.73,6.15-4.86,8.01-.39-.49-.96-.94-1.69-1.35,3.03-2.45,4.95-6.48,5.75-12.09h-4.99v-1.9h5.24c.07-.72,.13-1.61,.17-2.66,.01-.34,.03-.57,.04-.7h2.03c0,.1,0,.27-.02,.51-.06,1.11-.13,2.06-.21,2.85h10.88v1.9h-11.14c-.1,.76-.24,1.6-.42,2.51h7.82l.38-.08,1.31,.57c-.73,2.75-2.04,5.07-3.93,6.95,1.83,1.14,4.01,1.93,6.53,2.37-.46,.45-.89,1.05-1.27,1.8-2.73-.61-5-1.56-6.81-2.87-1.66,1.23-3.66,2.2-6,2.92Zm5.94-5.41c1.28-1.21,2.27-2.66,2.96-4.33h-6.23c.8,1.72,1.89,3.16,3.28,4.33Z"/>
      <path class="cls-1" d="M100.34,.78h.68V18.92h-.68V.78Z"/>
    </g>
  </g>
</svg>