<?xml version="1.0" encoding="UTF-8"?>
<svg id="_圖層_2" data-name="圖層 2" xmlns="http://www.w3.org/2000/svg" viewBox="0 0 127.73 117.5">
  <defs>
    <style>
      .cls-1 {
        fill: #364447;
      }

      .cls-2 {
        fill: #94714d;
      }
    </style>
  </defs>
  <g id="_圖層_1-2" data-name="圖層 1">
    <g>
      <g>
        <rect class="cls-1" x="65.85" y="91.01" width="28.24" height="1.99"/>
        <path class="cls-1" d="M94.32,105.53c-.06,.97-.18,1.23-.35,1.8-.09,.29-.19,.54-.31,.73-.35,.57-.85,.83-1.46,.83h-26.02v-2h25.09c.33,0,.59-.44,.73-1.37h2.31Z"/>
        <path class="cls-1" d="M91.42,96.95h-22.89c0-1.1,.89-1.99,1.99-1.99h18.91c1.1,0,1.99,.89,1.99,1.99h0Z"/>
        <rect class="cls-1" x="70.48" y="97.53" width="18.98" height="1.99" transform="translate(-18.55 178.49) rotate(-90)"/>
        <path class="cls-1" d="M73.94,116.52h0v-.05s0,.03,0,.05Z"/>
        <g>
          <path class="cls-1" d="M70.51,94.96v10.11h0c-1.1,0-1.99-.89-1.99-1.99v-6.13c0-1.1,.89-1.99,1.99-1.99h0Z"/>
          <path class="cls-1" d="M91.41,96.95v6.13c0,1.1-.89,1.99-1.99,1.99h0v-10.11h0c1.1,0,1.99,.89,1.99,1.99Z"/>
        </g>
        <rect class="cls-1" x="68.54" y="99.08" width="19.28" height="1.99"/>
        <path class="cls-1" d="M89.43,105.07h-18.91c-1.1,0-1.99-.89-1.99-1.99h22.89c0,1.1-.89,1.99-1.99,1.99Z"/>
        <polygon class="cls-1" points="84.13 114.43 81.71 114.43 79.57 110.31 81.99 110.31 84.13 114.43"/>
        <polygon class="cls-1" points="70.24 110.55 68.89 117.47 66.7 117.47 68.05 110.55 70.24 110.55"/>
        <g>
          <path class="cls-1" d="M88.46,115.48h-12.25c-.55,0-.99-.42-1.01-.95v-3.06s0-.91,0-.91h-2.41v4.84c0,1.14,.88,2.07,1.98,2.07h14.46s-.75-1.99-.75-1.99Zm-14.51,1.04v-.05s0,.03,0,.05h0Z"/>
          <path class="cls-1" d="M73.94,116.52h0v-.05s0,.03,0,.05Z"/>
        </g>
        <polygon class="cls-1" points="93.51 117.47 91.21 117.47 88.6 110.55 90.9 110.55 93.51 117.47"/>
      </g>
      <g>
        <rect class="cls-1" x="99.27" y="92.15" width="27.8" height="1.99"/>
        <path class="cls-1" d="M123.69,100.64h-18.18v-1.99h18.18c.55,0,.99,.45,.99,1h0c0,.55-.45,.99-.99,.99Z"/>
        <path class="cls-1" d="M99.95,117.4l-1.52-1.53c6.82-6.78,7.46-27.92,7.46-28.13l2.15,.06c-.02,.9-.67,22.22-8.1,29.6Z"/>
        <path class="cls-1" d="M106.07,117.5l-.56-2.08c5.84-1.58,10.48-4.77,13.8-9.47,2.49-3.53,3.27-6.64,3.28-6.67l2.09,.5c-.03,.14-.85,3.48-3.55,7.33-2.49,3.55-7.12,8.23-15.05,10.38Z"/>
        <path class="cls-1" d="M127.73,117.45c-4.36,0-9.05-2.22-13.54-6.41-3.33-3.11-5.38-6.18-5.47-6.31l1.79-1.19s0,0,0,0h0c.1,.14,7.93,11.75,17.21,11.75v2.15Z"/>
      </g>
      <g>
        <rect class="cls-1" x="32.26" y="114.56" width="28.82" height="1.99"/>
        <rect class="cls-1" x="30.9" y="101.35" width="26.23" height="2.28" transform="translate(146.51 58.48) rotate(90)"/>
        <path class="cls-1" d="M51.58,101.49h-7.25s0-2.19,0-2.19h7.23s3.02-.1,3.97-2.11l1.98,.94c-1.53,3.25-5.76,3.36-5.94,3.36Z"/>
      </g>
      <g>
        <polygon class="cls-1" points="10.86 96.05 8.44 96.05 6.34 92.01 8.25 91.02 10.86 96.05"/>
        <polygon class="cls-1" points="25.22 96.05 22.8 96.05 20.7 92.01 22.61 91.02 25.22 96.05"/>
        <path class="cls-1" d="M13.13,90.58v1.99h-4.08l-.81-1.55-1.91,.99,.29,.56H3.91s.31-1.67,.31-1.68l-1.65-.31H13.13Z"/>
        <path class="cls-1" d="M4.68,90.9s0,.02,0,.03c0,.03-.01,.07-.01,.11-.05,.32-.11,.73-.21,1.17-.02,.1-.04,.2-.07,.31,0,.02,0,.04-.01,.06-.19,.84-.47,1.8-.87,2.69-.12,.27-.26,.53-.4,.79H.33v-.02c.26-.16,.5-.43,.73-.77,.51-.76,.91-1.88,1.19-3.06,.12-.48,.21-.98,.28-1.46,0-.05,.01-.09,.02-.14v-.02s.05,0,.05,0l1.02,.14h.08s.98,.17,.98,.17Z"/>
        <rect class="cls-1" y="107.9" width="28.89" height="1.99"/>
        <rect class="cls-1" x="2" y="97.71" width="10.93" height="1.99"/>
        <rect class="cls-1" x="6.33" y="99.35" width="1.99" height="4.65"/>
        <path class="cls-1" d="M27.4,90.58v1.99h-11.06v-1.16c0-.46,.35-.83,.79-.83h10.27Z"/>
        <polygon class="cls-1" points="13.06 102.48 13.06 104.5 1.98 106.09 1.97 106.03 1.97 104.08 6.33 103.45 8.31 103.17 13.06 102.48"/>
        <g>
          <path class="cls-1" d="M2.3,116.31H.66v-2.15h1.64c3.49,0,5.9-3.18,5.92-3.21l1.73,1.29c-.12,.17-3.09,4.07-7.65,4.07Z"/>
          <path class="cls-1" d="M28.22,116.31h-1.64c-4.56,0-7.53-3.91-7.65-4.07l1.73-1.29-.86,.64,.86-.65s2.46,3.21,5.93,3.21h1.64v2.15Z"/>
        </g>
        <path class="cls-1" d="M17.61,90.74l.09-.16h-1.24s0,.02,0,.02c0,.05-.01,.09-.02,.14-.07,.48-.17,.98-.28,1.46-.41,1.71-1.08,3.31-1.93,3.83h2.79c.62-1.08,1.02-2.36,1.27-3.46,.03-.13,.06-.25,.08-.37,.11-.51,.18-.96,.23-1.31l-.98-.15Z"/>
        <path class="cls-1" d="M28.11,103.76v2.16h-1.61c-.99,0-1.6-.4-1.93-.74-.75-.75-.78-1.77-.78-1.95v-5.99h.14c.25,0,.49,.04,.7,.12,.24,.08,.46,.21,.65,.37,.04,.03,.08,.06,.11,.1,.35,.34,.58,.8,.6,1.3v4.13c0,.18,0,.51,.51,.51h1.61Z"/>
        <path class="cls-1" d="M25.99,99.12v.08h-8.48c0-.32-.01-.59-.03-.81-.02-.32-.04-.52-.05-.56l-1.83,.32v-.93h8.33c.25,0,.48,.04,.7,.12,.24,.08,.46,.21,.65,.36,.04,.03,.08,.07,.11,.1,.35,.34,.58,.8,.59,1.31Z"/>
        <path class="cls-1" d="M17.52,99.21c0,.64-.04,1.46-.2,2.36-.05,.31-.12,.64-.21,.97-.09,.36-.21,.72-.35,1.08-.26,.66-.72,1.32-1.2,1.94h-2.49l.43-.49,.41-.46c.15-.17,.28-.34,.41-.52,.21-.31,.39-.63,.54-.96,.09-.19,.17-.39,.24-.59,.18-.49,.29-.98,.37-1.45,.12-.71,.15-1.37,.15-1.88v-1.05l1.83-.32s.03,.24,.05,.56c.01,.22,.03,.49,.03,.81Z"/>
        <polygon class="cls-1" points="22.73 104.54 20.31 104.54 18.21 100.5 20.63 100.5 22.73 104.54"/>
        <rect class="cls-1" x="13.28" y="106.37" width="2.32" height="10.76"/>
      </g>
    </g>
    <g>
      <path class="cls-2" d="M38.49,24.02v28.87c0,13.24,10.78,24.02,24.02,24.02s24.02-10.78,24.02-24.02V24.02c0-13.24-10.78-24.02-24.02-24.02s-24.02,10.78-24.02,24.02Zm1.58,0c0-12.37,10.07-22.44,22.44-22.44s22.44,10.07,22.44,22.44v28.87c0,12.38-10.06,22.44-22.44,22.44s-22.44-10.06-22.44-22.44V24.02Z"/>
      <path class="cls-2" d="M42.6,19.15c-.12,.46-.21,.93-.25,1.41,0,.03,0,.05-.01,.08-.13,.91-.19,1.83-.19,2.76v30.12c0,.89,.06,1.76,.17,2.62,.02,.92,.21,1.81,.53,2.64,2.32,8.6,10.19,14.94,19.51,14.94h.31c9.25,0,17.07-6.25,19.45-14.74,.39-.95,.61-1.98,.61-3.05h0c.1-.79,.15-1.59,.15-2.41V23.4c0-.84-.05-1.66-.15-2.47,0-.03,0-.06-.01-.09-.03-.7-.16-1.37-.36-2.02,0-.02,0-.04-.01-.07t0-.01s0-.02-.01-.03c0-.01,0-.02-.01-.03,0-.01,0-.02,0-.03-2.14-8.85-10.12-15.45-19.63-15.45h-.31c-9.63,0-17.7,6.77-19.72,15.79-.01,.05-.02,.11-.03,.16Zm.2,2.08h.04c0-.2,.02-.4,.03-.6,.06-.46,.14-.92,.24-1.37,1.02-3.71,4.86-6.47,9.43-6.47,5.21,0,9.5,3.62,9.69,8.11-.02,0-.05,0-.07,0h0s-9.42,0-9.42,0c-.14,0-.28,0-.42,0h-.13c-.89,.03-1.76,.15-2.59,.37-.79,.21-1.54,.5-2.25,.86-.03,.02-.07,.03-.1,.05-.02,0-.03,.02-.05,.03-1.16,.62-2.18,1.45-2.98,2.45-.2,.24-.38,.49-.55,.75h0c-.44,.66-.77,1.36-.99,2.1v-4.11c0-.73,.04-1.46,.12-2.17,0,0,0,0,0,0Zm-.12,11c.97,3.12,3.83,5.57,7.43,6.35-3.6,.77-6.46,3.22-7.43,6.34v-12.69Zm0,17.42c.23,.73,.55,1.44,.99,2.1h0s0,0,0,0c0,0,0,0,0,0h0c1.82,2.78,5.22,4.51,8.87,4.51h.1s9.59,0,9.59,0c-.2,4.5-4.48,8.11-9.69,8.11-4.27,0-7.9-2.41-9.2-5.75-.23-.83-.39-1.67-.51-2.54,0-.05,0-.11,0-.16h-.02c-.1-.79-.15-1.59-.15-2.41v-3.86Zm39.66,3.86c0,1.83-.25,3.61-.72,5.29,0,.01,0,.02-.01,.02-1.36,3.23-4.93,5.54-9.12,5.54-5.21,0-9.49-3.61-9.7-8.11l9.7-.02v.02c.17,0,.34,0,.51-.02h.01c.31-.01,.62-.04,.93-.08,.17-.02,.34-.04,.51-.07,.02,0,.05,0,.07-.01,.14-.03,.27-.05,.41-.08,2.05-.42,3.88-1.39,5.26-2.8,.11-.11,.22-.23,.32-.34,.11-.12,.21-.24,.31-.36,.1-.12,.19-.24,.28-.37,.09-.13,.18-.25,.27-.38,.42-.63,.75-1.32,.97-2.03v3.8Zm0-8.66c-.99-3.1-3.83-5.52-7.41-6.28,3.58-.77,6.42-3.19,7.41-6.28v12.56Zm0-17.42c-.23-.71-.55-1.39-.97-2.03-.09-.14-.19-.28-.29-.42,0,0,0,0,0,0-.01-.02-.03-.04-.05-.06-.01-.02-.03-.04-.04-.06,0,0-.01-.02-.02-.03,0,0,0-.01-.01-.02h0c-.09-.12-.18-.23-.27-.34-.03-.04-.07-.08-.1-.12-.09-.11-.19-.21-.28-.31-.03-.03-.05-.05-.08-.08-.03-.03-.06-.06-.08-.08-.02-.02-.04-.04-.06-.06-.05-.05-.11-.09-.16-.14-.02-.02-.03-.03-.05-.04-.11-.1-.23-.21-.35-.3-.09-.07-.17-.15-.26-.21-.01,0-.03-.02-.04-.03-.07-.05-.14-.1-.2-.15-.08-.06-.16-.12-.25-.18-.02-.02-.05-.04-.07-.05-.01,0-.03-.02-.05-.03-.26-.17-.52-.32-.79-.47-.05-.03-.1-.06-.15-.09-.03-.02-.06-.03-.09-.05-.03-.02-.07-.03-.1-.05-.02-.01-.05-.02-.07-.03-.13-.06-.26-.12-.39-.18-.03-.01-.06-.02-.08-.03-.09-.04-.19-.08-.28-.11-.05-.02-.11-.04-.16-.06-.03-.01-.06-.02-.09-.03-.14-.05-.27-.1-.41-.14-.04-.01-.08-.03-.12-.04-.06-.02-.11-.03-.17-.05-.08-.02-.17-.05-.26-.07-.03,0-.06-.02-.09-.03-.04-.01-.09-.02-.13-.03-.14-.04-.29-.07-.44-.1-.08-.02-.16-.04-.23-.05-.06-.01-.12-.02-.18-.03-.1-.02-.21-.03-.31-.05-.03,0-.07-.01-.1-.01-.07-.01-.14-.02-.21-.03-.04,0-.08,0-.13-.01-.04,0-.09,0-.13-.01,0,0,0,0,0,0-.04,0-.07,0-.11-.01-.03,0-.06,0-.1,0l-.21-.02c-.06,0-.11,0-.17,0-.04,0-.08,0-.12,0-.04,0-.07,0-.11,0h-9.81s0,0,0,0c-.02,0-.04,0-.06,0,.2-4.5,4.49-8.11,9.69-8.11,4.46,0,8.21,2.63,9.35,6.2,.14,.58,.25,1.19,.33,1.8,0,.15,.03,.3,.03,.45h.02s0,0,0,0c.08,.71,.12,1.44,.12,2.17v4.04Zm-29.66-6.01c.07,0,.13,0,.19,0h6.19c-1.13,.36-2.18,.88-3.07,1.54-1.14,.82-2.07,1.87-2.71,3.03-.66,1.2-1.01,2.54-1.01,3.88v.17s0,.02,0,.02h0s0,0,0,0c0,.17,.01,.33,.03,.5,0,.02,0,.03,0,.04,0,.02,0,.03,0,.04v7.67c-5.27-.12-9.49-3.86-9.49-8.44,0-1.47,.44-2.92,1.27-4.17,0,0,0,0,0,0h0s.04-.05,.06-.08c.12-.18,.25-.35,.38-.52,.05-.06,.09-.12,.14-.18,.16-.19,.33-.38,.5-.56,.21-.21,.43-.42,.67-.61,.02-.01,.03-.03,.05-.04,.23-.19,.47-.37,.72-.53,.02-.01,.04-.03,.06-.04,.24-.16,.48-.31,.74-.44,.02,0,.03-.02,.05-.03,.25-.13,.51-.25,.77-.37,.06-.03,.12-.05,.18-.08,.26-.1,.51-.2,.78-.29,.05-.02,.11-.03,.16-.05,.23-.07,.46-.13,.69-.18,.08-.02,.15-.04,.23-.05,.26-.05,.53-.1,.8-.13,.09-.01,.18-.02,.27-.03,.24-.03,.49-.05,.73-.06,.04,0,.08,0,.13,0,.1,0,.19,0,.29,0h.19Zm-9.84,25.87c0-4.58,4.21-8.32,9.44-8.44,0,.33,0,.66,0,.99,0,.93,0,1.86,.01,2.78,0,.94,0,1.89,.01,2.83,0,1.21-.1,2.46,.18,3.65,.3,1.26,.91,2.43,1.73,3.43,.87,1.06,1.97,1.91,3.19,2.53,.54,.27,1.1,.5,1.68,.68-.32-.1-.82,0-1.15,0-.82,0-1.65,0-2.47,0-1.24,0-2.48,.03-3.72-.08-3.01-.26-5.93-1.63-7.63-4.21-.81-1.22-1.29-2.64-1.29-4.16Zm14.81,7.3c-2.98-1.51-4.84-4.31-4.84-7.3v-.07s0-.1,0-.15h.04v-.48s0-.12,0-.12c.28-2.52,1.6-4.17,2.7-5.13,1.84-1.6,4.27-2.48,6.87-2.48h.13c.46,0,.91-.03,1.34-.09,.41-.05,.83-.13,1.28-.23,3.16-.77,5.66-2.73,6.86-5.38,.06-.15,.12-.29,.18-.44v12.2s-.04-.07-.06-.1c-.03-.06-.07-.12-.11-.18-1.11-1.65-3.25-2.47-5.45-2.1-2.1,.35-3.7,1.66-4.17,3.43l-.03,.14c-.02,.13-.04,.26-.06,.39-.02,.16-.04,.31-.05,.44h-.01v8.81c-1.63-.03-3.23-.42-4.64-1.14Zm8.33,1.14c.57-.17,1.12-.4,1.64-.67,1.42-.71,2.58-1.68,3.43-2.83,.03-.04,.06-.07,.09-.12,.01-.02,.03-.03,.04-.05,.06-.08,.12-.17,.17-.25,0,0,0,0,0,0,.08-.11,.15-.23,.23-.35,.09-.14,.17-.29,.25-.44,.64-1.17,.98-2.47,.98-3.81v-.33s-.01-.08-.02-.12c0-.08-.01-.15-.02-.23l-.03-.23v-7.46c5.24,.12,9.45,3.86,9.45,8.44,0,1.47-.44,2.91-1.27,4.17-.11,.16-.21,.31-.33,.46-.07,.11-.16,.21-.24,.31-.07,.1-.16,.2-.25,.29-.1,.11-.2,.22-.3,.32-.09,.08-.18,.17-.27,.26-1.28,1.17-2.93,2.01-4.73,2.4-.13,.03-.26,.05-.39,.07-.18,.03-.36,.06-.54,.08-.22,.03-.43,.04-.64,.06-.22,.01-.43,.02-.65,.02h-6.61Zm-3.81-34.29h.09v8.7c-.04,2.21-2.14,4-4.71,4s-4.47-1.6-4.71-3.65c0-.06,0-.11,0-.17-.01-.11-.02-.19-.02-.28v-.09s0-.06,0-.06c0-1.25,.33-2.51,.94-3.63,.59-1.09,1.48-2.08,2.55-2.86,1.2-.87,2.68-1.49,4.27-1.79,.47-.09,.99-.14,1.56-.17h.03Zm.69,0h.04c1.58,.05,3.12,.45,4.48,1.14,2.9,1.46,4.73,4.15,4.83,7.05h0v.62h0c0,.1-.02,.2-.02,.3-.05,.45-.12,.86-.23,1.27-.11,.37-.24,.74-.41,1.11-1.14,2.51-3.51,4.36-6.51,5.09-.43,.11-.83,.18-1.23,.23-.43,.06-.88,.08-1.33,.08h-.06s-.1,0-.15,0c-2.67,.03-5.18,.95-7.07,2.61-1.06,.92-1.86,2.03-2.37,3.24l-.03-5.34,.04-.26v-6.46c.87,1.5,2.64,2.53,4.7,2.53,2.86,0,5.18-2.01,5.24-4.5h0v-.02s0-.05,0-.07h0v-8.63h.07Zm19.34,8.44c0,4.58-4.22,8.32-9.45,8.44v-8.07c0-.1,0-.19,0-.3v-.07c0-.08,0-.16,0-.25-.09-3.11-2.04-5.97-5.12-7.53-.52-.26-1.06-.49-1.63-.67h6.57c3.46,.02,6.66,1.65,8.36,4.27,.83,1.26,1.27,2.7,1.27,4.17Zm-19.38,25.79s0-.49,0-.52v-6.2c0-1.34-.17-2.78,.63-3.96,.73-1.08,1.97-1.72,3.24-1.93,2-.33,3.93,.39,4.92,1.86,.04,.07,.08,.12,.11,.17,.19,.3,.33,.62,.43,.94,.03,.11,.06,.23,.08,.34v1.31c-.03,.53-.11,1.06-.25,1.57-.21,.77-.53,1.51-.96,2.18-.43,.67-.96,1.26-1.56,1.78-.6,.53-1.28,.97-2,1.33-1.41,.72-3,1.11-4.63,1.14Zm-.56-51.93h0v14.7c-1.35-3.57-5.2-6.17-9.71-6.17-3.57,0-6.71,1.61-8.55,4.05,0,0,0,0,0-.01,2.84-7.32,9.94-12.53,18.25-12.58Zm18.74,12.52c-1.84-2.4-4.96-3.98-8.5-3.98-4.51,0-8.36,2.59-9.71,6.17V3.72c8.27,.05,15.35,5.23,18.21,12.51h0s0,0,0,.01Zm-18.21,56.95v-14.46c1.35,3.57,5.21,6.16,9.71,6.16,3.42,0,6.46-1.48,8.31-3.75-2.97,7.04-9.93,12-18.02,12.05Zm-18.59-12.1c1.85,2.3,4.91,3.8,8.35,3.8,4.5,0,8.35-2.58,9.71-6.15v14.45c-8.13-.04-15.1-5.03-18.06-12.1Z"/>
    </g>
  </g>
</svg>