<?xml version="1.0" encoding="UTF-8"?>
<svg id="_圖層_2" data-name="圖層 2" xmlns="http://www.w3.org/2000/svg" viewBox="0 0 127.73 29.77">
  <defs>
    <style>
      .cls-1 {
        fill: #364447;
      }
    </style>
  </defs>
  <g id="_圖層_1-2" data-name="圖層 1">
    <g>
      <g>
        <rect class="cls-1" x="65.85" y="3.27" width="28.24" height="1.99"/>
        <path class="cls-1" d="M94.32,17.79c-.06,.97-.18,1.23-.35,1.8-.09,.29-.19,.54-.31,.73-.35,.57-.85,.83-1.46,.83h-26.02v-2h25.09c.33,0,.59-.44,.73-1.37h2.31Z"/>
        <path class="cls-1" d="M91.42,9.21h-22.89c0-1.1,.89-1.99,1.99-1.99h18.91c1.1,0,1.99,.89,1.99,1.99h0Z"/>
        <rect class="cls-1" x="70.48" y="9.79" width="18.98" height="1.99" transform="translate(69.18 90.75) rotate(-90)"/>
        <path class="cls-1" d="M73.94,28.78h0v-.05s0,.03,0,.05Z"/>
        <g>
          <path class="cls-1" d="M70.51,7.22v10.11h0c-1.1,0-1.99-.89-1.99-1.99v-6.13c0-1.1,.89-1.99,1.99-1.99h0Z"/>
          <path class="cls-1" d="M91.41,9.21v6.13c0,1.1-.89,1.99-1.99,1.99h0V7.22h0c1.1,0,1.99,.89,1.99,1.99Z"/>
        </g>
        <rect class="cls-1" x="68.54" y="11.34" width="19.28" height="1.99"/>
        <path class="cls-1" d="M89.43,17.33h-18.91c-1.1,0-1.99-.89-1.99-1.99h22.89c0,1.1-.89,1.99-1.99,1.99Z"/>
        <polygon class="cls-1" points="84.13 26.69 81.71 26.69 79.57 22.58 81.99 22.58 84.13 26.69"/>
        <polygon class="cls-1" points="70.24 22.81 68.89 29.74 66.7 29.74 68.05 22.81 70.24 22.81"/>
        <g>
          <path class="cls-1" d="M88.46,27.74h-12.25c-.55,0-.99-.42-1.01-.95v-3.06s0-.91,0-.91h-2.41v4.84c0,1.14,.88,2.07,1.98,2.07h14.46s-.75-1.99-.75-1.99Zm-14.51,1.04v-.05s0,.03,0,.05h0Z"/>
          <path class="cls-1" d="M73.94,28.78h0v-.05s0,.03,0,.05Z"/>
        </g>
        <polygon class="cls-1" points="93.51 29.74 91.21 29.74 88.6 22.81 90.9 22.81 93.51 29.74"/>
      </g>
      <g>
        <rect class="cls-1" x="99.27" y="4.41" width="27.8" height="1.99"/>
        <path class="cls-1" d="M123.69,12.9h-18.18v-1.99h18.18c.55,0,.99,.45,.99,1h0c0,.55-.45,.99-.99,.99Z"/>
        <path class="cls-1" d="M99.95,29.66l-1.52-1.53c6.82-6.78,7.46-27.92,7.46-28.13l2.15,.06c-.02,.9-.67,22.22-8.1,29.6Z"/>
        <path class="cls-1" d="M106.07,29.77l-.56-2.08c5.84-1.58,10.48-4.77,13.8-9.47,2.49-3.53,3.27-6.64,3.28-6.67l2.09,.5c-.03,.14-.85,3.48-3.55,7.33-2.49,3.55-7.12,8.23-15.05,10.38Z"/>
        <path class="cls-1" d="M127.73,29.71c-4.36,0-9.05-2.22-13.54-6.41-3.33-3.11-5.38-6.18-5.47-6.31l1.79-1.19s0,0,0,0h0c.1,.14,7.93,11.75,17.21,11.75v2.15Z"/>
      </g>
      <g>
        <rect class="cls-1" x="32.26" y="26.82" width="28.82" height="1.99"/>
        <rect class="cls-1" x="30.9" y="13.62" width="26.23" height="2.28" transform="translate(58.78 -29.26) rotate(90)"/>
        <path class="cls-1" d="M51.58,13.75h-7.25s0-2.19,0-2.19h7.23s3.02-.1,3.97-2.11l1.98,.94c-1.53,3.25-5.76,3.36-5.94,3.36Z"/>
      </g>
      <g>
        <polygon class="cls-1" points="10.86 8.32 8.44 8.32 6.34 4.28 8.25 3.28 10.86 8.32"/>
        <polygon class="cls-1" points="25.22 8.32 22.8 8.32 20.7 4.28 22.61 3.28 25.22 8.32"/>
        <path class="cls-1" d="M13.13,2.85v1.99h-4.08l-.81-1.55-1.91,.99,.29,.56H3.91s.31-1.67,.31-1.68l-1.65-.31H13.13Z"/>
        <path class="cls-1" d="M4.68,3.16s0,.02,0,.03c0,.03-.01,.07-.01,.11-.05,.32-.11,.73-.21,1.17-.02,.1-.04,.2-.07,.31,0,.02,0,.04-.01,.06-.19,.84-.47,1.8-.87,2.69-.12,.27-.26,.53-.4,.79H.33v-.02c.26-.16,.5-.43,.73-.77,.51-.76,.91-1.88,1.19-3.06,.12-.48,.21-.98,.28-1.46,0-.05,.01-.09,.02-.14v-.02s.05,0,.05,0l1.02,.14h.08s.98,.17,.98,.17Z"/>
        <rect class="cls-1" y="20.17" width="28.89" height="1.99"/>
        <rect class="cls-1" x="2" y="9.97" width="10.93" height="1.99"/>
        <rect class="cls-1" x="6.33" y="11.61" width="1.99" height="4.65"/>
        <path class="cls-1" d="M27.4,2.85v1.99h-11.06v-1.16c0-.46,.35-.83,.79-.83h10.27Z"/>
        <polygon class="cls-1" points="13.06 14.75 13.06 16.76 1.98 18.35 1.97 18.3 1.97 16.34 6.33 15.72 8.31 15.43 13.06 14.75"/>
        <g>
          <path class="cls-1" d="M2.3,28.58H.66v-2.15h1.64c3.49,0,5.9-3.18,5.92-3.21l1.73,1.29c-.12,.17-3.09,4.07-7.65,4.07Z"/>
          <path class="cls-1" d="M28.22,28.58h-1.64c-4.56,0-7.53-3.91-7.65-4.07l1.73-1.29-.86,.64,.86-.65s2.46,3.21,5.93,3.21h1.64v2.15Z"/>
        </g>
        <path class="cls-1" d="M17.61,3.01l.09-.16h-1.24s0,.02,0,.02c0,.05-.01,.09-.02,.14-.07,.48-.17,.98-.28,1.46-.41,1.71-1.08,3.31-1.93,3.83h2.79c.62-1.08,1.02-2.36,1.27-3.46,.03-.13,.06-.25,.08-.37,.11-.51,.18-.96,.23-1.31l-.98-.15Z"/>
        <path class="cls-1" d="M28.11,16.03v2.16h-1.61c-.99,0-1.6-.4-1.93-.74-.75-.75-.78-1.77-.78-1.95v-5.99h.14c.25,0,.49,.04,.7,.12,.24,.08,.46,.21,.65,.37,.04,.03,.08,.06,.11,.1,.35,.34,.58,.8,.6,1.3v4.13c0,.18,0,.51,.51,.51h1.61Z"/>
        <path class="cls-1" d="M25.99,11.39v.08h-8.48c0-.32-.01-.59-.03-.81-.02-.32-.04-.52-.05-.56l-1.83,.32v-.93h8.33c.25,0,.48,.04,.7,.12,.24,.08,.46,.21,.65,.36,.04,.03,.08,.07,.11,.1,.35,.34,.58,.8,.59,1.31Z"/>
        <path class="cls-1" d="M17.52,11.47c0,.64-.04,1.46-.2,2.36-.05,.31-.12,.64-.21,.97-.09,.36-.21,.72-.35,1.08-.26,.66-.72,1.32-1.2,1.94h-2.49l.43-.49,.41-.46c.15-.17,.28-.34,.41-.52,.21-.31,.39-.63,.54-.96,.09-.19,.17-.39,.24-.59,.18-.49,.29-.98,.37-1.45,.12-.71,.15-1.37,.15-1.88v-1.05l1.83-.32s.03,.24,.05,.56c.01,.22,.03,.49,.03,.81Z"/>
        <polygon class="cls-1" points="22.73 16.81 20.31 16.81 18.21 12.77 20.63 12.77 22.73 16.81"/>
        <rect class="cls-1" x="13.28" y="18.63" width="2.32" height="10.76"/>
      </g>
    </g>
  </g>
</svg>