<?xml version="1.0" encoding="UTF-8"?>
<svg id="_圖層_2" data-name="圖層 2" xmlns="http://www.w3.org/2000/svg" viewBox="0 0 164.55 14.33">
  <defs>
    <style>
      .cls-1 {
        fill: #fff;
      }
    </style>
  </defs>
  <g id="_圖層_1-2" data-name="圖層 1">
    <path class="cls-1" d="M3.09,10.82c-.48,1.14-1.06,2.1-1.71,2.91l-1.38-.96c.66-.72,1.27-1.54,1.84-2.49l1.26,.54ZM6.55,.84V0h1.45V.84h6.6v1.21h-6.6v.67h5.34V7.53h-.43c.8,.65,1.45,1.23,1.93,1.7l-1.32,.86c-.23-.28-.5-.59-.8-.92-1.32,.12-3.06,.23-5.25,.33,.71,.65,1.29,1.21,1.72,1.68l-1.32,.86c-.42-.59-1-1.29-1.71-2.07l.69-.44c-1.85,.09-3.99,.17-6.41,.25l-.19-1.32c2.25-.02,4.35-.06,6.29-.12v-.79H1.34V2.72H6.55v-.67H.13V.84H6.55Zm0,3.72v-.73H2.77v.73h3.78Zm0,.96H2.77v.92h3.78v-.92Zm-1.45,4.75v2.18c0,.3,.18,.44,.56,.44h3.65c.29,0,.52-.06,.66-.17,.16-.09,.27-.61,.34-1.54l1.38,.44c-.14,1.18-.37,1.88-.69,2.1-.27,.22-.77,.33-1.51,.33H5.1c-.45,0-.81-.11-1.06-.33-.26-.23-.39-.53-.39-.89v-2.55h1.45Zm2.9-5.71h3.9v-.73h-3.9v.73Zm3.9,.96h-3.9v.92h3.9v-.92Zm-.45,2.37l.58-.36h-4.02v.75c1.3-.05,2.53-.11,3.67-.17-.08-.06-.16-.14-.23-.22Zm3.33,4.87l-1.37,.9c-.45-.84-1.06-1.77-1.84-2.85l1.14-.67c.87,1.03,1.56,1.9,2.06,2.61Z"/>
    <path class="cls-1" d="M21.27,1.88c.06-.59,.15-1.2,.21-1.84h1.51c-.06,.65-.14,1.26-.23,1.84h8.27v1.51h-8.48c-.13,.7-.24,1.35-.37,1.95h7.34v1.1c-.42,1.63-1.21,3.05-2.37,4.25-.08,.08-.15,.14-.19,.19,1.18,.79,2.59,1.46,4.27,2.01l-.89,1.45c-1.9-.76-3.41-1.57-4.57-2.47-1.26,.86-2.93,1.65-5.06,2.43l-.82-1.53c1.96-.51,3.54-1.15,4.72-1.9-.02,0-.02-.02-.02-.02-1.22-1.14-2.08-2.52-2.56-4.17h-.18c-.19,.69-.39,1.31-.6,1.85-.8,2.04-2.01,3.86-3.62,5.45l-1.01-1.28c1.4-1.45,2.48-3.08,3.25-4.89,.45-1.18,.84-2.66,1.14-4.42h-4.27V1.88h4.51Zm4.52,8.08c.85-.76,1.55-1.85,2.06-3.28h-4.27c.5,1.34,1.24,2.44,2.21,3.28Z"/>
    <path class="cls-1" d="M39.4,8.12v-1.9h1.96v1.9h-1.96Z"/>
    <path class="cls-1" d="M52.57,13.94v-3.54c-.76,1.09-1.54,1.94-2.33,2.54-.26-.38-.57-.72-.94-1.01,.53-.34,1.07-.8,1.61-1.38,.54-.58,1-1.18,1.38-1.8h-2.62v-1.2h2.9v-1.38h-2.95v-1.2h1.61c-.05-.59-.23-1.24-.55-1.95l1.07-.26h-1.93V1.6h2.74V.17h1.41V1.6h2.74v1.17h-1.9l1.1,.24c-.03,.08-.08,.2-.14,.36-.33,.79-.57,1.32-.72,1.6h1.83v1.2h-2.91v1.38h2.77v1.2h-2.77v.26c.46,.3,1.25,.9,2.37,1.8l-.85,1.04c-.3-.34-.81-.84-1.52-1.5v3.59h-1.41Zm-1.03-8.96h3.45l-1.08-.23c.3-.68,.54-1.34,.71-1.98h-2.79c.34,.71,.55,1.37,.63,1.98l-.91,.23Zm4.81,9.04c-.08-.15-.24-.33-.45-.53-.22-.2-.41-.35-.58-.44,.85-.83,1.43-1.89,1.75-3.18,.22-.89,.33-2.01,.33-3.36V1.27l.97,.27c1.9-.43,3.29-.87,4.17-1.3l1.18,1.01c-1.21,.53-2.85,.98-4.92,1.38v2.45h5.08v1.3h-1.65v7.5h-1.41V6.39h-2.02v.14c0,3.41-.81,5.91-2.44,7.49Z"/>
    <path class="cls-1" d="M69.48,13.97V4.45h-.47c-.53,1.16-1.06,2.08-1.57,2.77-.41-.33-.85-.62-1.33-.86,.61-.72,1.15-1.65,1.65-2.8,.45-1.07,.82-2.23,1.11-3.48l1.54,.3c-.24,.91-.52,1.8-.83,2.68h3.92v1.14c.55-1.15,1.01-2.52,1.38-4.12l1.47,.29c-.26,1-.53,1.9-.82,2.69h5.19v1.39h-2.21v7.75c0,.42-.05,.75-.16,.97-.12,.23-.31,.4-.58,.51-.41,.18-1.3,.27-2.68,.27-.07-.48-.24-.98-.5-1.48,.61,.02,1.3,.03,2.08,.03,.14,0,.23-.04,.27-.08,.05-.05,.07-.12,.07-.24V4.45h-2.05c-.46,1.07-.98,1.98-1.55,2.73-.28-.27-.7-.56-1.25-.86,.43-.5,.83-1.13,1.21-1.86h-2.41V13.97h-1.47Z"/>
    <path class="cls-1" d="M85.73,13.96V7.83c-.64,1.51-1.31,2.69-2.01,3.53-.12-.3-.35-.74-.71-1.3,.46-.5,.92-1.17,1.38-2,.46-.82,.84-1.63,1.13-2.44h-2.3v-1.32h2.51V2.27c-.37,.07-.91,.16-1.63,.26-.16,.02-.27,.04-.34,.05-.05-.32-.19-.69-.41-1.09,2.18-.34,3.84-.75,4.98-1.23l.83,1.15c-.51,.19-1.19,.38-2.02,.58v2.32h2.19v1.32h-2.19v.21c.22,.22,.59,.63,1.11,1.23,.5,.58,.83,.97,.99,1.18l-.88,1.11c-.21-.44-.62-1.11-1.22-2v6.62h-1.41Zm8.54,0v-3.63l-4.94,.8-.22-1.35,5.16-.83V.08h1.44V8.72l1.71-.27,.22,1.32-1.93,.32v3.88h-1.44Zm-1.97-5.92c-.25-.32-.63-.7-1.14-1.14-.49-.42-.98-.8-1.47-1.12l.92-.82c1.24,.8,2.14,1.51,2.68,2.15l-.99,.92Zm.39-3.98c-.48-.66-1.29-1.39-2.43-2.2l.96-.8c1.13,.75,1.96,1.45,2.49,2.1l-1.02,.89Z"/>
    <path class="cls-1" d="M106.44,8.12v-1.9h1.96v1.9h-1.96Z"/>
    <path class="cls-1" d="M119.61,13.94v-3.54c-.76,1.09-1.54,1.94-2.34,2.54-.26-.38-.57-.72-.94-1.01,.53-.34,1.07-.8,1.61-1.38,.54-.58,1-1.18,1.38-1.8h-2.62v-1.2h2.9v-1.38h-2.95v-1.2h1.61c-.05-.59-.23-1.24-.55-1.95l1.07-.26h-1.93V1.6h2.74V.17h1.41V1.6h2.74v1.17h-1.9l1.1,.24c-.03,.08-.08,.2-.14,.36-.33,.79-.57,1.32-.72,1.6h1.83v1.2h-2.91v1.38h2.77v1.2h-2.77v.26c.46,.3,1.25,.9,2.37,1.8l-.85,1.04c-.3-.34-.81-.84-1.52-1.5v3.59h-1.41Zm-1.03-8.96h3.45l-1.08-.23c.3-.68,.54-1.34,.71-1.98h-2.79c.34,.71,.55,1.37,.63,1.98l-.91,.23Zm4.81,9.04c-.08-.15-.24-.33-.45-.53-.22-.2-.41-.35-.58-.44,.85-.83,1.43-1.89,1.75-3.18,.22-.89,.33-2.01,.33-3.36V1.27l.97,.27c1.9-.43,3.29-.87,4.17-1.3l1.18,1.01c-1.21,.53-2.85,.98-4.92,1.38v2.45h5.08v1.3h-1.65v7.5h-1.41V6.39h-2.02v.14c0,3.41-.81,5.91-2.44,7.49Z"/>
    <path class="cls-1" d="M133.64,13.5v-1.36h6.21v-3.48h-4.47v-1.35h4.47v-3.03h-3.48c-.51,.96-1.03,1.74-1.55,2.35-.39-.31-.83-.59-1.33-.85,.62-.63,1.18-1.43,1.68-2.42,.47-.94,.86-1.96,1.16-3.06l1.5,.33c-.22,.74-.49,1.49-.81,2.27h2.84V.09h1.5V2.91h5.45v1.38h-5.45v3.03h4.87v1.35h-4.87v3.48h6.21v1.36h-13.91Z"/>
    <path class="cls-1" d="M153.15,7.04c-.75-.49-1.71-1.03-2.88-1.62l.8-1.04c1.33,.63,2.29,1.13,2.88,1.5l-.8,1.17Zm-1.35,6.74l-1.22-.94c.98-1.34,1.96-2.94,2.95-4.78l1.05,.94c-.87,1.71-1.79,3.3-2.77,4.78Zm2.08-10.83c-.54-.37-1.5-.93-2.87-1.67l.82-1c1.24,.59,2.21,1.1,2.91,1.53l-.86,1.14Zm1.85,11.01v-5.9h3.29v-2.24h-4.36v-1.35h4.36V2.32c-1.06,.16-2.14,.28-3.26,.36-.07-.41-.21-.81-.42-1.18,3.36-.34,5.84-.8,7.44-1.38l1.14,1.09c-.93,.33-2.11,.63-3.53,.88v2.38h4.15v1.35h-4.15v2.24h3.23v5.83h-1.38v-.56h-5.19v.64h-1.33Zm1.33-1.91h5.19v-2.73h-5.19v2.73Z"/>
  </g>
</svg>